<svg xmlns="http://www.w3.org/2000/svg" viewBox="0 0 443.13 156.36"><defs><style>.cls-1,.cls-3{font-size:103.64px;font-family:CenturyGothic, Century Gothic;}.cls-1,.cls-2,.cls-3{fill:#fff;}.cls-3{letter-spacing:0.05em;}.cls-4{fill:none;stroke:#fff;stroke-miterlimit:10;stroke-width:3px;}</style></defs><g id="Calque_2" data-name="Calque 2"><g id="Calque_1-2" data-name="Calque 1"><text class="cls-1" transform="translate(0 97.56) scale(0.87 1)"><tspan xml:space="preserve">C   M</tspan></text><path class="cls-2" d="M108.69,42.1c-.09,1.27-1.15,18.82,8.71,29.92a42.56,42.56,0,0,0,15.85,10.82c.71.28,1.31.48,1.71.62a29.12,29.12,0,0,1-2.1,4.08,33.56,33.56,0,0,1-2.54,3.53C128.67,93,125.81,96.4,121,97.8a17.5,17.5,0,0,1-11.16-.71A21.76,21.76,0,0,1,103,92.91c-2.39-2.08-2.67-3-6.47-7-1.17-1.25-2.43-2.41-3.67-3.6a17.6,17.6,0,0,1-4.47-7.69c-.45-1.44-1.26-4.14-2.62-9.64-1.2-4.85-1.53-6.53-1.68-7.32-.38-2-.6-3.56-1-6.67A38.42,38.42,0,0,1,82.65,47a28.1,28.1,0,0,1,.14-4.54,20.25,20.25,0,0,1,3.4-8.5,22.71,22.71,0,0,1,7.38-7,26,26,0,0,0-1.92,2.1,20.23,20.23,0,0,0-2.71,4.16,12.77,12.77,0,0,0-1.46,4.38c-.09.82-.52,4.59,1,5.34,2,1,5.75-4.31,9.17-3.42a5,5,0,0,1,1.26.51c1.29.79,1.38,1.84,2.63,2.9l.06,0a6.14,6.14,0,0,0,1.61.92C103.89,44.24,106.26,43.91,108.69,42.1ZM105.84,64a9.89,9.89,0,0,0-1.34-1.31,11,11,0,0,0-10-1.67,5.49,5.49,0,0,0-2,1.19,5.37,5.37,0,0,0-1.13,1.52A9.09,9.09,0,0,0,93,65.52a9.36,9.36,0,0,0,6.46,2A9.49,9.49,0,0,0,105.84,64Z"/><path class="cls-2" d="M118.63,39.3a43.58,43.58,0,0,1,.25-21.53,24.5,24.5,0,0,1,4.67-9.92c5-6,11.87-7.44,14.52-7.85a14.1,14.1,0,0,0-1.57,2.56,14.48,14.48,0,0,0-1.18,3.73,18.77,18.77,0,0,1,3.47-1.15,19.19,19.19,0,0,1,4.48-.49,14.53,14.53,0,0,0-2.06,3.73,15.48,15.48,0,0,0-.71,2.56,19.58,19.58,0,0,1,8-1.64,36.48,36.48,0,0,1-1.93,3.38,36,36,0,0,1-6.18,7.24c-4.38,4-7.12,4.69-10.84,7.25A36.39,36.39,0,0,0,118.63,39.3Z"/><path class="cls-2" d="M89.45,40.83a19.28,19.28,0,0,1,1.11-6.6,19.07,19.07,0,0,1,1.7-3.53,22.63,22.63,0,0,1,4.58-5.13c3.41-2.71,10.43-4.68,18.86-3.5A28.25,28.25,0,0,0,110,31.85a31.8,31.8,0,0,0-20.57,9Z"/><path class="cls-2" d="M120.14,61.44a10.23,10.23,0,0,1,6.19-6.22c1.17-.43,3.85-1.41,6.21-.13a5.93,5.93,0,0,1,1,.73A9.47,9.47,0,0,1,131.15,60a9.07,9.07,0,0,1-11,1.41Z"/><path class="cls-2" d="M133.81,50.44a15.24,15.24,0,0,0-7-.3,13,13,0,0,0-2.68.66,12.4,12.4,0,0,0-2,1c-2.49,1.54-3,2.93-4.3,2.8A2.5,2.5,0,0,1,116.5,54a14.41,14.41,0,0,1,4.82-4.09,11.8,11.8,0,0,1,12.49.54Z"/><text class="cls-3" transform="translate(238.42 124.57) scale(0.9 1)">MUZ</text><line class="cls-4" x1="243.88" y1="24.14" x2="434.58" y2="24.14"/><line class="cls-4" x1="4.87" y1="123.57" x2="226.36" y2="123.57"/></g></g></svg>