<?xml version="1.0" encoding="UTF-8" standalone="no"?>
<!-- Created with Inkscape (http://www.inkscape.org/) -->

<svg
   xmlns:dc="http://purl.org/dc/elements/1.1/"
   xmlns:cc="http://creativecommons.org/ns#"
   xmlns:rdf="http://www.w3.org/1999/02/22-rdf-syntax-ns#"
   xmlns:svg="http://www.w3.org/2000/svg"
   xmlns="http://www.w3.org/2000/svg"
   xmlns:sodipodi="http://sodipodi.sourceforge.net/DTD/sodipodi-0.dtd"
   xmlns:inkscape="http://www.inkscape.org/namespaces/inkscape"
   version="1.1"
   id="svg2"
   width="524"
   height="208"
   viewBox="0 0 524 208"
   sodipodi:docname="logo--large.svg"
   inkscape:version="0.92+devel unknown">
  <metadata
     id="metadata8">
    <rdf:RDF>
      <cc:Work
         rdf:about="">
        <dc:format>image/svg+xml</dc:format>
        <dc:type
           rdf:resource="http://purl.org/dc/dcmitype/StillImage" />
        <dc:title></dc:title>
      </cc:Work>
    </rdf:RDF>
  </metadata>
  <defs
     id="defs6" />
  <sodipodi:namedview
     pagecolor="#ffffff"
     bordercolor="#666666"
     inkscape:document-rotation="0"
     borderopacity="1"
     objecttolerance="10"
     gridtolerance="10"
     guidetolerance="10"
     inkscape:pageopacity="0"
     inkscape:pageshadow="2"
     inkscape:window-width="1920"
     inkscape:window-height="1016"
     id="namedview4"
     showgrid="false"
     inkscape:zoom="1.5695961"
     inkscape:cx="164.05203"
     inkscape:cy="104"
     inkscape:window-x="0"
     inkscape:window-y="0"
     inkscape:window-maximized="1"
     inkscape:current-layer="g10"
     inkscape:pagecheckerboard="true" />
  <g
     inkscape:groupmode="layer"
     inkscape:label="Image"
     id="g10">
    <path
       id="path4267"
       style="fill:#ffffff;fill-opacity:1;stroke-width:1.33333337"
       d="m 154.75937,81.772525 c -0.78432,-1.46552 -1.42604,-9.02793 -1.42604,-16.80536 0,-11.73644 0.47931,-15.09523 2.81896,-19.75432 4.63896,-9.2378 8.48399,-13.47702 15.87003,-17.49701 l 7.00964,-3.81513 -0.91464,4.8755 -0.91465,4.8755 5.53206,-0.88461 5.53206,-0.88462 -2.0356,3.93642 -2.0356,3.93641 8.11824,-0.58722 8.11824,-0.58722 -2.86734,4.02679 -2.86733,4.0268 6.06452,0.90943 c 3.33548,0.50019 5.87857,1.35791 5.65129,1.90605 -0.22726,0.54815 -7.375,7.58459 -15.88385,15.63655 -15.39327,14.5667 -17.62061,15.93435 -30.10332,18.48435 -3.40932,0.69646 -4.52017,0.34394 -5.66667,-1.79831 z m -43.22204,12.25299 c -1.70959,-1.70959 -0.81734,-7.83067 1.75687,-12.05256 1.43966,-2.36116 5.0518,-6.05636 8.02697,-8.21157 2.97518,-2.15521 4.67537,-4.16324 3.77821,-4.4623 -1.05458,-0.35152 -0.83021,-0.85111 0.6347,-1.41325 1.24626,-0.47823 2.26592,-0.36711 2.26592,0.24693 0,0.61405 3.45,0.30459 7.66667,-0.68768 10.9248,-2.57084 11.65885,-2.43732 8.52229,1.55016 -1.46919,1.86777 -3.05021,5.12136 -3.5134,7.2302 -0.71701,3.26455 -1.67175,3.97165 -6.42552,4.7589 -7.08744,1.17371 -9.33782,2.38584 -16.23843,8.7466 -3.08199,2.84088 -5.99541,4.77344 -6.47428,4.29457 z m 39.12934,12.941345 c 0,-1.69525 7.18361,-5.39166 10.26712,-5.28306 1.8748,0.066 1.72534,0.35494 -0.68342,1.32106 -1.69562,0.6801 -3.98849,2.14207 -5.09524,3.24882 -2.28896,2.28897 -4.48846,2.63845 -4.48846,0.71318 z m -49.77778,7.07687 C 100.4,113.55485 100,112.28138 100,111.21381 c 0,-1.57419 0.37799,-1.62733 2,-0.28119 1.1,0.91292 2,2.18639 2,2.82993 0,1.38069 -1.84486,1.54743 -3.11111,0.28118 z m 51.79222,3.22223 c 1.95433,-6.81109 13.35502,-13.25629 15.96853,-9.02756 2.19957,3.55899 -7.46111,12.01244 -13.73949,12.02257 -2.57122,0.004 -2.94536,-0.49857 -2.22904,-2.99501 z m -21.26928,8.99911 c 2.53988,-1.96355 2.52944,-2.05063 -0.55954,-4.66667 -5.3066,-4.49412 -18.50987,-2.79949 -16.61717,2.1328 1.68623,4.39426 12.67369,6.0151 17.17671,2.53387 z m 12.04056,43.17661 c -7.73006,-1.8132 -12.49806,-5.26838 -22.10621,-16.01947 -6.6377,-7.42729 -9.33931,-11.71864 -11.5961,-18.41975 -1.85282,-5.50157 -2.4747,-9.20552 -1.67951,-10.00317 0.69452,-0.69667 1.18378,-3.69667 1.08724,-6.66667 l -0.17552,-5.4 -0.84294,4.66667 c -1.26311,6.99286 -2.80602,1.84419 -2.80602,-9.36369 0,-10.196585 2.22466,-13.877075 3.02224,-5.00003 l 0.51188,5.69705 0.21252,-6 c 0.25269,-7.133795 -1.63474,-11.186005 -3.72622,-7.999995 -0.7221,1.1 -1.3221,4.25 -1.33333,6.999995 -0.0112,2.75 -0.62042,5 -1.35375,5 -4.744029,0 4.00255,-23.916465 11.17831,-30.565745 4.63365,-4.29368 4.41356,-2.96515 -0.54177,3.27033 -5.3799,6.76973 -6.16137,10.46662 -3.1648,14.9718 1.33781,2.01133 2.29412,4.85696 2.12512,6.323615 -0.19495,1.69199 0.35707,1.20447 1.5103,-1.333845 0.99966,-2.20028 2.87182,-4.87547 4.16037,-5.94487 2.06361,-1.71265 2.81587,-1.67286 6.31236,0.33385 4.49319,2.57874 8.13706,2.8803 11.70841,0.96897 2.20283,-1.17892 2.60008,-0.4264 3.99086,7.560025 3.98417,22.8788 15.83181,40.39929 30.97337,45.80394 4.25533,1.51891 4.73532,2.09945 3.55663,4.30187 -2.84879,5.323 -11.35182,13.48886 -16.47583,15.82252 -5.90468,2.68918 -7.00913,2.76485 -14.54761,0.9966 z"
       inkscape:connector-curvature="0" />
  </g>
</svg>
