<?xml version="1.0" encoding="UTF-8" standalone="no"?>
<!-- Created with Inkscape (http://www.inkscape.org/) -->

<svg
   xmlns:dc="http://purl.org/dc/elements/1.1/"
   xmlns:cc="http://creativecommons.org/ns#"
   xmlns:rdf="http://www.w3.org/1999/02/22-rdf-syntax-ns#"
   xmlns:svg="http://www.w3.org/2000/svg"
   xmlns="http://www.w3.org/2000/svg"
   xmlns:sodipodi="http://sodipodi.sourceforge.net/DTD/sodipodi-0.dtd"
   xmlns:inkscape="http://www.inkscape.org/namespaces/inkscape"
   version="1.1"
   id="svg2"
   width="70"
   height="50"
   viewBox="0 0 70 50"
   sodipodi:docname="quote_open.svg"
   inkscape:version="0.92.2 (5c3e80d, 2017-08-06)">
  <metadata
     id="metadata8">
    <rdf:RDF>
      <cc:Work
         rdf:about="">
        <dc:format>image/svg+xml</dc:format>
        <dc:type
           rdf:resource="http://purl.org/dc/dcmitype/StillImage" />
        <dc:title />
      </cc:Work>
    </rdf:RDF>
  </metadata>
  <defs
     id="defs6" />
  <sodipodi:namedview
     pagecolor="#ffffff"
     bordercolor="#666666"
     inkscape:document-rotation="0"
     borderopacity="1"
     objecttolerance="10"
     gridtolerance="10"
     guidetolerance="10"
     inkscape:pageopacity="0"
     inkscape:pageshadow="2"
     inkscape:window-width="1920"
     inkscape:window-height="1016"
     id="namedview4"
     showgrid="false"
     inkscape:zoom="5.0883176"
     inkscape:cx="48.451708"
     inkscape:cy="-5.5838789"
     inkscape:window-x="0"
     inkscape:window-y="27"
     inkscape:window-maximized="1"
     inkscape:current-layer="g10" />
  <g
     inkscape:groupmode="layer"
     inkscape:label="Image"
     id="g10"
     transform="translate(0,-50)">
    <path
       style="opacity:0.6;fill:#ca7281;fill-opacity:1"
       d="M 14.394779,96.131608 C 9.3318735,94.607469 5.7168735,89.977252 5.1733265,84.320451 4.1054595,73.206938 11.19744,62.639165 23.452663,57.082382 c 8.163918,-3.701698 9.479678,-3.711412 9.479678,-0.06999 0,2.362846 -0.692223,3.160274 -4.062685,4.680141 -4.605802,2.076928 -8.622574,6.369522 -9.598392,10.257493 -0.540795,2.154698 -0.138215,3.001555 2.221418,4.672928 9.072017,6.425879 10.681146,11.087224 5.689659,16.48188 -3.071641,3.319742 -7.966071,4.478237 -12.787562,3.026774 z m 29.853882,-0.87656 C 39.066211,92.859824 36.929191,88.972435 36.94211,81.963927 36.96466,69.729496 45.435911,60.131725 61.085101,54.610371 l 3.84724,-1.357386 v 3.263193 c 0,2.837218 -0.51362,3.489801 -3.93459,4.999132 -2.16403,0.954766 -5.3396,3.336147 -7.05682,5.291958 -4.22593,4.813062 -3.79031,7.937035 1.61126,11.554946 2.26592,1.517686 4.67354,4.096153 5.35027,5.729926 3.54589,8.560539 -6.99588,15.626606 -16.6538,11.162908 z"
       id="path4271"
       inkscape:connector-curvature="0" />
  </g>
</svg>
