<?xml version="1.0" encoding="UTF-8" standalone="no"?>
<!-- Created with Inkscape (http://www.inkscape.org/) -->

<svg
   xmlns:dc="http://purl.org/dc/elements/1.1/"
   xmlns:cc="http://creativecommons.org/ns#"
   xmlns:rdf="http://www.w3.org/1999/02/22-rdf-syntax-ns#"
   xmlns:svg="http://www.w3.org/2000/svg"
   xmlns="http://www.w3.org/2000/svg"
   xmlns:sodipodi="http://sodipodi.sourceforge.net/DTD/sodipodi-0.dtd"
   xmlns:inkscape="http://www.inkscape.org/namespaces/inkscape"
   version="1.1"
   id="svg2"
   width="561.59998"
   height="267.51999"
   viewBox="0 0 561.59997 267.51999"
   sodipodi:docname="em_corpo.svg"
   inkscape:version="0.92.2 (5c3e80d, 2017-08-06)">
  <metadata
     id="metadata8">
    <rdf:RDF>
      <cc:Work
         rdf:about="">
        <dc:format>image/svg+xml</dc:format>
        <dc:type
           rdf:resource="http://purl.org/dc/dcmitype/StillImage" />
        <dc:title></dc:title>
      </cc:Work>
    </rdf:RDF>
  </metadata>
  <defs
     id="defs6" />
  <sodipodi:namedview
     pagecolor="#ffffff"
     bordercolor="#666666"
     borderopacity="1"
     objecttolerance="10"
     gridtolerance="10"
     guidetolerance="10"
     inkscape:pageopacity="0"
     inkscape:pageshadow="2"
     inkscape:window-width="1920"
     inkscape:window-height="1016"
     id="namedview4"
     showgrid="false"
     inkscape:pagecheckerboard="true"
     fit-margin-top="0"
     fit-margin-left="0"
     fit-margin-right="0"
     fit-margin-bottom="0"
     inkscape:zoom="0.66625196"
     inkscape:cx="150.43971"
     inkscape:cy="134.72"
     inkscape:window-x="0"
     inkscape:window-y="27"
     inkscape:window-maximized="1"
     inkscape:current-layer="svg2" />
  <path
     style="fill:#ffffff;fill-opacity:1;stroke-width:0.31999999"
     d="M 0,133.76 V 0 H 133.76 267.52 V 133.76 267.52 H 133.76 0 Z m 38.97392,107.85502 c 1.952336,-0.85959 3.637088,-2.65533 4.174701,-4.44972 0.499792,-1.66815 0.469133,-4.3119 -0.06482,-5.58983 -0.72953,-1.74601 -3.092823,-3.53465 -6.198186,-4.69105 -5.205357,-1.93841 -5.839046,-2.26682 -6.058109,-3.13965 -0.555161,-2.21193 3.154531,-2.59454 7.127936,-0.73516 1.164026,0.54472 2.162157,0.99039 2.218071,0.99039 0.172691,0 2.706486,-4.70021 2.706486,-5.02056 0,-0.4204 -3.322736,-1.95316 -5.44,-2.50943 -0.968,-0.25433 -2.802454,-0.46412 -4.076566,-0.46621 -5.665994,-0.009 -9.352336,3.21453 -9.360308,8.18587 -0.0064,3.98688 1.96058,5.95895 7.926234,7.94679 4.023725,1.34077 4.87064,1.84751 4.87064,2.91431 0,2.21447 -4.133229,2.34634 -8.268541,0.26379 -1.348304,-0.67901 -2.535635,-1.27462 -2.638512,-1.32358 -0.204534,-0.0973 -3.173302,4.24971 -3.172374,4.64518 6.4e-4,0.23532 1.869136,1.48124 3.519427,2.34668 3.304214,1.73277 9.532006,2.04195 12.733921,0.63218 z m 25.044608,-0.25104 c 1.959158,-0.97356 4.461472,-2.9461 4.461472,-3.51691 0,-0.14606 -0.931654,-1.18893 -2.070342,-2.3175 l -2.07034,-2.05193 -1.36966,0.97118 c -2.463559,1.74684 -4.686666,2.13885 -6.895568,1.21591 -4.259642,-1.7798 -5.513239,-7.70743 -2.399348,-11.34532 2.41857,-2.82555 5.993994,-3.01694 8.958391,-0.47953 l 1.311305,1.12243 2.270042,-2.46359 2.270045,-2.46358 -1.042263,-1.07632 c -0.573244,-0.59197 -1.966905,-1.53178 -3.097027,-2.08846 -1.782905,-0.87823 -2.465094,-1.02862 -5.156141,-1.13671 -2.267756,-0.0911 -3.60774,0.021 -4.985235,0.41691 -9.552512,2.74567 -12.852534,14.93731 -6.020313,22.24151 2.952572,3.15653 5.682825,4.21251 10.554982,4.08232 2.884928,-0.0771 3.432195,-0.19219 5.28,-1.11041 z m 50.607732,0.5617 c 3.8409,-1.18633 7.02554,-4.15453 8.604,-8.01924 1.02855,-2.51832 1.02725,-7.07912 -0.003,-9.69641 -2.06525,-5.24847 -7.12318,-8.53003 -13.14726,-8.53003 -6.03467,0 -10.93219,3.22283 -13.15026,8.65356 -1.02855,2.51832 -1.02725,7.07912 0.003,9.69641 1.43979,3.65852 4.67894,6.6719 8.46014,7.87047 2.67274,0.8472 6.53822,0.85777 9.23363,0.0253 z m -6.71861,-6.12689 c -1.67121,-0.48196 -3.47969,-2.52893 -4.09045,-4.62987 -1.00643,-3.462 0.34382,-6.79347 3.40135,-8.39215 2.7481,-1.43688 6.61706,-0.38406 8.2379,2.24169 1.091,1.76742 1.4553,3.78181 1.04306,5.76757 -0.82994,3.99778 -4.56172,6.17502 -8.59186,5.01276 z m 35.83861,6.12689 c 3.8409,-1.18633 7.02554,-4.15453 8.604,-8.01924 1.02855,-2.51832 1.02725,-7.07912 -0.003,-9.69641 -2.06537,-5.24847 -7.1233,-8.53003 -13.14738,-8.53003 -6.03467,0 -10.93219,3.22283 -13.15026,8.65356 -1.02855,2.51832 -1.02725,7.07912 0.003,9.69641 1.43979,3.65852 4.67894,6.6719 8.46014,7.87047 2.67274,0.8472 6.53822,0.85777 9.23363,0.0253 z m -6.71861,-6.12689 c -1.67121,-0.48196 -3.47969,-2.52893 -4.09045,-4.62987 -1.00643,-3.462 0.34382,-6.79347 3.40135,-8.39215 2.7481,-1.43688 6.61706,-0.38406 8.2379,2.24169 1.091,1.76742 1.4553,3.78181 1.04306,5.76757 -0.82994,3.99778 -4.56172,6.17502 -8.59186,5.01276 z M 77.8161,233.68 c 0.0946,-7.50427 0.15979,-8.3324 0.72984,-9.27483 1.61541,-2.67067 5.98902,-2.67052 7.44864,2.5e-4 0.49036,0.89725 0.57921,2.12838 0.66932,9.27458 l 0.1039,8.24 h 3.67668 3.67668 l -0.10058,-10 c -0.0944,-9.38791 -0.14199,-10.08951 -0.77709,-11.46236 -1.54751,-3.34513 -4.50659,-4.97195 -8.56478,-4.70867 -2.58509,0.16771 -3.78095,0.68705 -5.62811,2.44422 L 77.76,219.42091 V 213.07045 206.72 H 74.08 70.4 v 17.6 17.6 H 74.056099 77.7122 Z M 163.2,224.32 v -17.6 h -3.68 -3.68 v 17.6 17.6 h 3.68 3.68 z M 43.954339,200.6296 c 5.323984,-1.99196 8.233994,-7.16593 7.803856,-13.87518 -0.497869,-7.76568 -5.459286,-12.69843 -12.357673,-12.28626 -2.805309,0.16761 -4.380823,0.84701 -6.200522,2.67382 L 32,178.34667 V 171.89333 165.44 h -3.68 -3.68 v 17.6 17.6 H 28.32 32 v -1.50277 -1.50278 l 1.04,0.98695 c 1.062198,1.00802 2.644496,1.92358 4.07793,2.35961 1.622435,0.49352 5.04887,0.3174 6.836409,-0.35141 z m -8.114176,-6.1091 c -1.135795,-0.45291 -2.194237,-1.51724 -2.983888,-3.0005 -0.520905,-0.97845 -0.68144,-1.8454 -0.68144,-3.68 0,-2.58707 0.632797,-4.2809 2.114023,-5.65868 2.423318,-2.25408 6.894172,-1.68873 8.738422,1.105 2.396227,3.62989 1.348614,9.21102 -2.05489,10.94736 -1.36592,0.69684 -3.767395,0.83105 -5.132227,0.28682 z m 30.658954,5.99767 c 0.582512,-0.30491 1.626512,-1.06699 2.32,-1.69351 L 70.08,197.68553 v 1.47723 1.47724 h 3.68 3.68 v -12.8 -12.8 h -3.660333 -3.660336 l -0.09966,8.24 c -0.0865,7.15152 -0.174358,8.37667 -0.665085,9.27458 -1.477036,2.70264 -6.032128,2.70264 -7.509164,0 -0.490362,-0.89725 -0.57921,-2.12838 -0.669319,-9.27458 l -0.103901,-8.24 H 57.39552 53.718845 l 0.100579,10 c 0.09442,9.38791 0.141984,10.08951 0.777085,11.46236 0.862489,1.86438 2.697878,3.6493 4.396425,4.27554 1.767088,0.6515 6.04832,0.50336 7.506183,-0.25973 z m 29.114803,-0.18315 c 1.95234,-0.85959 3.63709,-2.65533 4.1747,-4.44972 0.49979,-1.66815 0.46913,-4.3119 -0.0648,-5.58983 -0.72953,-1.74601 -3.09282,-3.53465 -6.19818,-4.69105 -5.20536,-1.93841 -5.83905,-2.26682 -6.05811,-3.13965 -0.55516,-2.21193 3.15453,-2.59454 7.12793,-0.73516 1.16403,0.54472 2.16216,0.99039 2.21807,0.99039 0.17269,0 2.70649,-4.70021 2.70649,-5.02056 0,-0.4204 -3.32274,-1.95316 -5.44,-2.50943 -0.968,-0.25433 -2.80245,-0.46412 -4.07657,-0.46621 -5.66599,-0.009 -9.35233,3.21453 -9.3603,8.18587 -0.006,3.98688 1.96058,5.95895 7.92623,7.94679 4.02372,1.34077 4.87064,1.84751 4.87064,2.91431 0,2.21447 -4.13323,2.34634 -8.26854,0.26379 -1.3483,-0.67901 -2.53564,-1.27462 -2.63851,-1.32358 -0.20454,-0.0973 -3.17331,4.24971 -3.17238,4.64518 6.4e-4,0.23532 1.86914,1.48124 3.51943,2.34668 3.30421,1.73277 9.53201,2.04195 12.73392,0.63218 z m 63.1706,0.0195 c 1.75458,-0.68178 5.18029,-3.35885 4.98839,-3.89825 -0.0511,-0.14365 -1.01008,-1.05406 -2.13107,-2.02315 l -2.03817,-1.76198 -1.16183,0.90486 c -0.63901,0.49767 -1.65133,1.06666 -2.24959,1.26441 -1.48153,0.48972 -4.30977,0.45274 -5.56753,-0.0728 -1.00258,-0.41889 -3.10472,-2.4993 -3.10472,-3.07261 0,-0.15548 -0.0874,-0.51047 -0.19424,-0.78887 -0.17427,-0.45413 0.72685,-0.50617 8.76531,-0.50617 h 8.95955 l 0.20671,-0.82361 c 0.29383,-1.1707 -0.38248,-5.68279 -1.13974,-7.60399 -1.40816,-3.57252 -4.13419,-6.13421 -7.59987,-7.14171 -2.59505,-0.75441 -6.70656,-0.48053 -9.0675,0.60401 -5.02549,2.30854 -7.9473,7.62516 -7.52091,13.6853 0.23011,3.27058 1.20752,5.69671 3.15225,7.82456 1.87972,2.05671 3.19562,2.92501 5.66608,3.73882 2.52584,0.83204 7.46588,0.6702 10.03688,-0.32882 z M 147.20901,185.2 c 0.0207,-0.91829 1.55424,-3.33158 2.54183,-4 1.29106,-0.87381 3.71076,-0.96755 5.31576,-0.20593 1.19783,0.56841 2.26468,2.06232 2.57274,3.60263 L 157.84,185.6 h -5.32 c -4.04748,0 -5.31784,-0.0957 -5.31099,-0.4 z m 34.80491,15.13502 c 1.95234,-0.85959 3.63709,-2.65533 4.1747,-4.44972 0.49979,-1.66815 0.46913,-4.3119 -0.0648,-5.58983 -0.72953,-1.74601 -3.09282,-3.53465 -6.19818,-4.69105 -5.20536,-1.93841 -5.83905,-2.26682 -6.05811,-3.13965 -0.55516,-2.21193 3.15453,-2.59454 7.12793,-0.73516 1.16403,0.54472 2.16216,0.99039 2.21807,0.99039 0.17269,0 2.70649,-4.70021 2.70649,-5.02056 0,-0.4204 -3.32274,-1.95316 -5.44,-2.50943 -0.968,-0.25433 -2.80245,-0.46412 -4.07657,-0.46621 -5.66599,-0.009 -9.35233,3.21453 -9.3603,8.18587 -0.006,3.98688 1.96058,5.95895 7.92623,7.94679 4.02372,1.34077 4.87064,1.84751 4.87064,2.91431 0,2.21447 -4.13323,2.34634 -8.26854,0.26379 -1.3483,-0.67901 -2.53564,-1.27462 -2.63851,-1.32358 -0.20454,-0.0973 -3.17331,4.24971 -3.17238,4.64518 6.4e-4,0.23532 1.86914,1.48124 3.51943,2.34668 3.30421,1.73277 9.53201,2.04195 12.73392,0.63218 z m 20.8,0 c 1.95234,-0.85959 3.63709,-2.65533 4.1747,-4.44972 0.49979,-1.66815 0.46913,-4.3119 -0.0648,-5.58983 -0.72953,-1.74601 -3.09282,-3.53465 -6.19818,-4.69105 -5.20536,-1.93841 -5.83905,-2.26682 -6.05811,-3.13965 -0.55516,-2.21193 3.15453,-2.59454 7.12793,-0.73516 1.16403,0.54472 2.16216,0.99039 2.21807,0.99039 0.17269,0 2.70649,-4.70021 2.70649,-5.02056 0,-0.4204 -3.32274,-1.95316 -5.44,-2.50943 -0.968,-0.25433 -2.80245,-0.46412 -4.07657,-0.46621 -5.66599,-0.009 -9.35233,3.21453 -9.3603,8.18587 -0.006,3.98688 1.96058,5.95895 7.92623,7.94679 4.02372,1.34077 4.87064,1.84751 4.87064,2.91431 0,2.21447 -4.13323,2.34634 -8.26854,0.26379 -1.3483,-0.67901 -2.53564,-1.27462 -2.63851,-1.32358 -0.20454,-0.0973 -3.17331,4.24971 -3.17238,4.64518 6.4e-4,0.23532 1.86914,1.48124 3.51943,2.34668 3.30421,1.73277 9.53201,2.04195 12.73392,0.63218 z M 110.08,187.84 v -12.8 h -3.68 -3.68 v 12.8 12.8 h 3.68 3.68 z m 11.5761,4.56 c 0.0946,-7.50427 0.15979,-8.3324 0.72984,-9.27483 1.61541,-2.67067 5.98902,-2.67052 7.44864,2.5e-4 0.49036,0.89725 0.57921,2.12838 0.66932,9.27458 l 0.1039,8.24 h 3.67668 3.67668 l -0.10058,-10 c -0.0944,-9.38791 -0.14199,-10.08951 -0.77709,-11.46236 -1.54751,-3.34513 -4.50659,-4.97195 -8.56478,-4.70867 -2.58509,0.16771 -3.78095,0.68705 -5.62811,2.44422 L 121.6,178.14091 V 176.59045 175.04 h -3.68 -3.68 v 12.8 12.8 h 3.6561 3.6561 z m -11.32491,-23.52 -0.0912,-3.28 h -3.84 -3.84 l -0.0912,3.28 -0.0912,3.28 h 4.02239 4.02239 z m -64.640912,-2.33698 c 1.477021,-0.61698 2.773885,-1.82806 3.774634,-3.52493 0.422298,-0.71605 3.059542,-7.34005 5.860544,-14.72 2.800998,-7.37995 5.195795,-13.67466 5.32177,-13.98825 0.213398,-0.53121 -0.04065,-0.56399 -3.719872,-0.48 l -3.948916,0.0902 -2.729219,8.41267 -2.729219,8.41267 -2.88,-8.48964 -2.88,-8.48965 -3.954237,-0.003 c -3.632937,-0.003 -3.937248,0.0425 -3.745158,0.55698 0.114992,0.308 2.385526,6.09154 5.045632,12.85231 l 4.836553,12.29231 -0.869238,0.74769 c -1.027987,0.88423 -1.654512,0.92618 -3.400352,0.22763 -0.714864,-0.28603 -1.353296,-0.46603 -1.418742,-0.4 -0.488426,0.49281 -2.373831,5.24868 -2.163968,5.45855 0.146054,0.14605 1.04944,0.54744 2.007529,0.89198 2.172688,0.78133 5.907379,0.85637 7.592259,0.15255 z m 32.455982,-7.17734 c 3.8409,-1.18633 7.02554,-4.15453 8.604,-8.01924 1.02855,-2.51832 1.02725,-7.07912 -0.003,-9.69641 -2.06537,-5.24847 -7.1233,-8.53003 -13.14738,-8.53003 -6.034669,0 -10.932192,3.22283 -13.150256,8.65356 -1.028557,2.51832 -1.027258,7.07912 0.0029,9.69641 1.439782,3.65852 4.678931,6.6719 8.460138,7.87047 2.672739,0.8472 6.538218,0.85777 9.233628,0.0252 z m -6.718609,-6.12689 c -1.671216,-0.48196 -3.479693,-2.52893 -4.090454,-4.62987 -1.006429,-3.462 0.343824,-6.79347 3.401353,-8.39215 2.748103,-1.43688 6.61706,-0.38406 8.2379,2.24169 1.091,1.76742 1.4553,3.78181 1.04306,5.76757 -0.82994,3.99778 -4.56172,6.17502 -8.591859,5.01276 z M 32.32,141.76 v -17.6 h -3.68 -3.68 v 17.6 17.6 h 3.68 3.68 z m 64.6961,9.36 c 0.0946,-7.50427 0.15979,-8.3324 0.72984,-9.27483 1.61541,-2.67067 5.98902,-2.67052 7.44864,2.5e-4 0.49036,0.89725 0.57921,2.12838 0.66932,9.27458 l 0.1039,8.24 h 3.67668 3.67668 l -0.10058,-10 c -0.0944,-9.38791 -0.14199,-10.08951 -0.77709,-11.46236 -1.54751,-3.34513 -4.50659,-4.97195 -8.56478,-4.70867 -2.58509,0.16771 -3.78095,0.68705 -5.62811,2.44422 L 96.96,136.86091 V 135.31045 133.76 H 93.28 89.6 v 12.8 12.8 h 3.6561 3.6561 z M 42.265235,117.52068 c 1.130122,-0.56161 2.616131,-1.54174 3.302247,-2.17808 l 1.247481,-1.15697 -1.134445,-1.13444 -1.134444,-1.13445 -1.233037,0.98704 c -3.093395,2.47624 -7.389341,3.17619 -10.429434,1.69929 -1.997465,-0.97038 -3.962128,-3.23751 -4.565085,-5.26789 C 28.055334,108.44894 27.84,107.60597 27.84,107.46192 27.84,107.31786 32.304,107.2 37.76,107.2 h 9.92 l -0.0047,-1.68 c -0.01139,-4.04087 -1.631059,-7.98975 -4.238733,-10.33427 -2.278096,-2.0482 -4.534742,-2.79929 -7.916537,-2.6349 -3.361236,0.16339 -5.134164,0.90105 -7.465866,3.10627 -2.956352,2.796 -4.228653,6.25726 -3.979728,10.82675 0.19224,3.52898 1.086598,5.91866 3.01984,8.06889 2.782205,3.09449 5.511504,4.20088 10.050989,4.07442 2.708864,-0.0755 3.304128,-0.2041 5.12,-1.10648 z M 28.029213,103.12 c 0.389734,-1.70285 1.63512,-4.0951 2.671309,-5.13129 1.348108,-1.34811 2.536617,-1.95122 4.329388,-2.19694 3.960874,-0.5429 7.426442,2.2688 8.440813,6.84823 l 0.301248,1.36 h -7.972083 -7.97208 z m 27.071699,6.4 c 0.08828,-7.62585 0.164285,-8.68222 0.696518,-9.68 1.494436,-2.8016 3.500925,-3.96942 6.492752,-3.77892 2.22914,0.14194 3.311828,0.73569 4.485812,2.46004 1.135932,1.66846 1.384006,3.8005 1.384006,11.89463 V 118.08 h 1.90119 1.901191 l 0.09881,-8.74607 0.09881,-8.74606 0.96,-1.54909 c 1.386309,-2.237 3.172159,-3.12355 5.989769,-2.9735 2.36988,0.12621 3.41949,0.6834 4.62622,2.45584 1.13594,1.66846 1.38401,3.8005 1.38401,11.89463 V 118.08 h 1.94535 1.94536 l -0.10536,-9.36 c -0.10102,-8.97532 -0.13562,-9.42576 -0.84174,-10.96 -1.54902,-3.36564 -3.96566,-4.9837 -7.78413,-5.21184 -3.3406,-0.1996 -5.20842,0.45246 -7.576637,2.64501 l -1.827412,1.69186 -1.256566,-1.4445 C 66.176237,91.483 59.746861,91.42062 56.24,95.31071 l -1.2,1.33113 V 94.88092 93.12 H 53.12 51.2 v 12.48 12.48 h 1.900912 1.900915 z M 271.36,133.76 V 0 H 416.48 561.6 V 133.76 267.52 H 416.48 271.36 Z m 282.24,0 V 8 H 416.48 279.36 V 133.76 259.52 H 416.48 553.6 Z M 306.08,242.12899 c -2.27424,-0.58879 -3.45277,-1.28177 -4.74272,-2.78882 -1.9223,-2.24576 -2.25907,-5.53409 -0.85008,-8.30017 1.91114,-3.75182 7.46333,-5.27605 14.5528,-3.99513 1.408,0.25439 2.596,0.46537 2.64,0.46884 0.34227,0.0269 -0.0546,-2.97921 -0.53219,-4.03086 -1.57507,-3.46838 -6.63379,-4.60573 -12.03767,-2.70642 -1.03836,0.36496 -1.99516,0.66357 -2.1262,0.66357 -0.13104,0 -0.41421,-0.58732 -0.62928,-1.30515 -0.45664,-1.52411 -0.36749,-1.62422 2.12534,-2.38662 4.11306,-1.25794 8.75754,-1.25555 11.77696,0.006 1.68736,0.70501 3.24947,2.19869 4.10957,3.92947 0.73126,1.47157 0.75648,1.79202 0.85513,10.87624 l 0.1017,9.36 h -1.7817 -1.78166 v -1.78965 -1.78966 l -1.5472,1.38966 c -2.55306,2.2931 -6.72541,3.28078 -10.1328,2.39864 z m 6.52099,-2.94705 c 1.79475,-0.53299 3.93123,-2.2159 4.69971,-3.702 0.26093,-0.50453 0.4593,-1.78695 0.4593,-2.96901 v -2.08085 l -1.2,-0.36229 c -1.92438,-0.58099 -7.54643,-0.77077 -9.1912,-0.31025 -3.93901,1.10285 -5.40442,5.02064 -2.93446,7.84539 1.73059,1.97921 4.81248,2.57509 8.16665,1.57901 z m 18.66576,2.90815 c -2.26089,-0.51131 -4.95142,-1.67143 -6.13411,-2.64495 l -0.78736,-0.64812 0.88022,-1.154 0.8802,-1.154 1.66985,0.94242 c 2.51607,1.41999 4.32224,1.95881 6.64675,1.98289 3.30845,0.0343 5.4177,-1.47096 5.4177,-3.86628 0,-2.21962 -1.25613,-3.16036 -6.24,-4.67329 -5.06947,-1.53892 -6.996,-2.87742 -7.84525,-5.45063 -0.82192,-2.49045 0.4816,-5.76118 2.88909,-7.24911 3.07424,-1.90002 7.73299,-1.8394 11.91654,0.15505 l 2.16039,1.02993 -0.80906,1.3441 -0.80902,1.3441 -1.03136,-0.59523 c -1.75575,-1.01332 -4.14563,-1.66028 -6.17831,-1.67252 -3.14985,-0.019 -4.93302,1.28872 -4.93302,3.6176 0,1.78932 1.41952,2.83748 5.80938,4.28959 4.44236,1.46948 5.58003,2.03165 6.8894,3.40432 2.98221,3.1264 1.55927,8.61135 -2.71052,10.44817 -2.08797,0.89821 -5.16688,1.11865 -7.68151,0.54996 z m 21.12,0 c -2.26089,-0.51131 -4.95142,-1.67143 -6.13411,-2.64495 l -0.78736,-0.64812 0.88022,-1.154 0.8802,-1.154 1.66985,0.94242 c 2.51607,1.41999 4.32224,1.95881 6.64675,1.98289 3.30845,0.0343 5.4177,-1.47096 5.4177,-3.86628 0,-2.21962 -1.25613,-3.16036 -6.24,-4.67329 -5.06947,-1.53892 -6.996,-2.87742 -7.84525,-5.45063 -0.82192,-2.49045 0.4816,-5.76118 2.88909,-7.24911 3.07424,-1.90002 7.73299,-1.8394 11.91654,0.15505 l 2.16039,1.02993 -0.80906,1.3441 -0.80902,1.3441 -1.03136,-0.59523 c -1.75575,-1.01332 -4.14563,-1.66028 -6.17831,-1.67252 -3.14985,-0.019 -4.93302,1.28872 -4.93302,3.6176 0,1.78932 1.41952,2.83748 5.80938,4.28959 4.44236,1.46948 5.58003,2.03165 6.8894,3.40432 2.98221,3.1264 1.55927,8.61135 -2.71052,10.44817 -2.08797,0.89821 -5.16688,1.11865 -7.68151,0.54996 z m 24.62627,-0.0209 c -3.79203,-0.82307 -6.7656,-3.22559 -8.50185,-6.86915 -0.93018,-1.95203 -0.99117,-2.30641 -0.99117,-5.76 0,-3.32808 0.0825,-3.85604 0.86269,-5.52084 3.79718,-8.10268 14.62278,-10.03072 20.79097,-3.70288 7.22605,7.41304 3.23156,20.1224 -6.91244,21.99349 -2.31079,0.42623 -2.68256,0.41627 -5.2482,-0.14062 z m 7.29709,-3.85464 c 0.91456,-0.49777 2.03392,-1.34367 2.48752,-1.87977 3.28855,-3.88696 3.17431,-10.30712 -0.24685,-13.86749 -2.05984,-2.14369 -3.54704,-2.77521 -6.55078,-2.78171 -2.24778,-0.005 -2.76995,0.11074 -4.28138,0.94783 -3.34153,1.8507 -5.02409,5.16873 -4.76985,9.40611 0.18169,3.028 1.19075,5.16476 3.32701,7.04516 2.7976,2.46255 6.76496,2.90928 10.03433,1.12987 z m 21.14439,3.99594 c -3.6441,-0.71434 -6.95536,-3.3505 -8.7258,-6.94678 -1.00131,-2.03397 -1.0487,-2.29708 -1.0487,-5.82367 0,-3.5244 0.0479,-3.79067 1.04566,-5.8175 1.31648,-2.67413 4.14048,-5.38341 6.54327,-6.27745 4.66745,-1.7367 9.65072,-0.91364 13.12262,2.16738 l 1.35767,1.20484 -1.16512,1.28965 -1.16512,1.28966 -0.85277,-0.89011 c -0.46903,-0.48956 -1.59831,-1.30186 -2.50951,-1.80511 -1.40633,-0.77672 -2.01939,-0.91548 -4.0567,-0.91818 -2.86643,-0.004 -4.31971,0.60489 -6.30048,2.63889 -2.48365,2.55038 -3.34026,6.85667 -2.11722,10.64356 1.14672,3.55062 4.96144,6.39436 8.5777,6.39436 1.90982,0 4.5641,-1.03973 6.17555,-2.41908 1.4345,-1.22786 1.85527,-1.20285 3.10803,0.18469 l 0.63642,0.70486 -1.44,1.29106 c -1.70925,1.53248 -4.04445,2.67172 -6.3871,3.11599 -1.9474,0.36932 -2.80068,0.3645 -4.7984,-0.0271 z M 435.68,242.129 c -2.27424,-0.58879 -3.45277,-1.28177 -4.74272,-2.78882 -1.9223,-2.24575 -2.25907,-5.53409 -0.85008,-8.30017 1.91114,-3.75182 7.46333,-5.27605 14.5528,-3.99513 1.408,0.2544 2.596,0.46537 2.64,0.46884 0.34227,0.0269 -0.0546,-2.9792 -0.53219,-4.03086 -1.57507,-3.46838 -6.63379,-4.60573 -12.03767,-2.70642 -1.03836,0.36496 -1.99516,0.66357 -2.1262,0.66357 -0.13104,0 -0.41421,-0.58732 -0.62928,-1.30515 -0.45664,-1.5241 -0.36749,-1.62421 2.12534,-2.38662 4.11306,-1.25793 8.75754,-1.25554 11.77696,0.006 1.68736,0.70502 3.24947,2.1987 4.10957,3.92947 0.73126,1.47157 0.75648,1.79202 0.85513,10.87624 l 0.1017,9.36 h -1.7817 -1.78166 v -1.78965 -1.78966 l -1.5472,1.38966 c -2.55306,2.2931 -6.72541,3.28078 -10.1328,2.39864 z m 6.52099,-2.94705 c 1.79475,-0.53298 3.93123,-2.2159 4.69971,-3.702 0.26093,-0.50453 0.4593,-1.78695 0.4593,-2.96901 v -2.08084 l -1.2,-0.3623 c -1.92438,-0.58098 -7.54643,-0.77076 -9.1912,-0.31025 -3.93901,1.10285 -5.40442,5.02064 -2.93446,7.84539 1.73059,1.97921 4.81248,2.5751 8.16665,1.57901 z m 48.41203,2.88721 c -3.79203,-0.82307 -6.7656,-3.22559 -8.50185,-6.86915 -0.93018,-1.95203 -0.99117,-2.30641 -0.99117,-5.76 0,-3.32808 0.0825,-3.85604 0.86269,-5.52084 3.79718,-8.10268 14.62278,-10.03072 20.79097,-3.70288 7.22605,7.41304 3.23156,20.1224 -6.91244,21.99349 -2.31079,0.42623 -2.68256,0.41627 -5.2482,-0.14062 z m 7.29709,-3.85464 c 0.91456,-0.49777 2.03392,-1.34367 2.48752,-1.87977 3.28855,-3.88696 3.17431,-10.30712 -0.24685,-13.86749 -2.05984,-2.14369 -3.54704,-2.77521 -6.55078,-2.78171 -2.24778,-0.005 -2.76995,0.11074 -4.28138,0.94783 -3.34153,1.8507 -5.02409,5.16873 -4.76985,9.40611 0.18169,3.028 1.19075,5.16476 3.32701,7.04516 2.7976,2.46255 6.76496,2.90928 10.03433,1.12987 z m -35.54048,3.74035 c -1.83337,-0.37927 -3.26771,-1.39736 -4.12963,-2.93122 -0.79062,-1.40694 -0.80122,-1.5259 -0.90288,-10.14364 l -0.10291,-8.72 H 455.49712 453.76 v -1.6 -1.6 h 1.76 1.76 v -3.68 -3.68 h 1.76 1.76 v 3.68 3.68 h 4 4 v 1.6 1.6 h -4.01968 -4.01965 l 0.0996,8.24 c 0.10998,9.09284 0.14266,9.24784 2.14822,10.19955 1.07156,0.50849 3.18951,0.48129 5.07146,-0.0651 0.66339,-0.19262 0.72,-0.10614 0.72,1.10005 0,1.10459 -0.13754,1.38023 -0.88032,1.76435 -1.11018,0.57408 -4.04266,0.86789 -5.55005,0.55605 z M 421.44,229.44 v -12.48 h 1.76 1.76 v 12.48 12.48 h -1.76 -1.76 z m 51.52,0 v -12.48 h 1.76 1.76 v 12.48 12.48 h -1.76 -1.76 z m 37.44,0 v -12.48 h 1.76 1.76 v 2.11461 2.11461 l 1.43059,-1.59115 c 1.94951,-2.16833 4.05306,-3.06165 7.20941,-3.06165 3.05603,0 5.28864,0.90988 6.99827,2.8521 2.09955,2.38524 2.28173,3.47175 2.28173,13.60823 V 241.92 h -1.74147 -1.74144 l -0.0986,-8.88 -0.0985,-8.88 -0.87958,-1.49626 c -1.26573,-2.15319 -3.65472,-3.30025 -6.36208,-3.05475 -2.66704,0.24184 -4.54234,1.44544 -5.84439,3.75101 l -0.99394,1.76 -0.10355,8.4 -0.10355,8.4 H 512.13645 510.4 Z M 421.12,209.6 v -1.92 h 2.08 2.08 v 1.92 1.92 h -2.08 -2.08 z m 51.52,0 v -1.92 h 2.08 2.08 v 1.92 1.92 h -2.08 -2.08 z m -166.33325,-8.78991 c -2.26089,-0.51131 -4.95142,-1.67143 -6.13411,-2.64495 l -0.78736,-0.64812 0.88022,-1.154 0.8802,-1.154 1.66985,0.94242 c 2.51607,1.41999 4.32224,1.95881 6.64675,1.98289 3.30845,0.0343 5.4177,-1.47096 5.4177,-3.86628 0,-2.21962 -1.25613,-3.16036 -6.24,-4.67329 -5.06947,-1.53892 -6.996,-2.87742 -7.84525,-5.45063 -0.82192,-2.49045 0.4816,-5.76118 2.88909,-7.24911 3.07424,-1.90002 7.73299,-1.8394 11.91654,0.15505 l 2.16039,1.02993 -0.80906,1.3441 -0.80902,1.3441 -1.03136,-0.59523 c -1.75575,-1.01332 -4.14563,-1.66028 -6.17831,-1.67252 -3.14985,-0.019 -4.93302,1.28872 -4.93302,3.6176 0,1.78932 1.41952,2.83748 5.80938,4.28959 4.44236,1.46948 5.58003,2.03165 6.8894,3.40432 2.98221,3.1264 1.55927,8.61135 -2.71052,10.44817 -2.08797,0.89821 -5.16688,1.11865 -7.68151,0.54996 z m 39.72323,0.13666 c -3.14976,-0.62316 -5.66419,-2.81978 -6.62179,-5.7848 -0.4392,-1.35988 -0.52819,-3.13896 -0.52819,-10.5587 V 175.68 h 1.74147 1.74144 l 0.0986,8.88 c 0.086,7.7538 0.16999,9.01072 0.66195,9.91072 1.74989,3.20128 5.78084,4.49095 9.19658,2.94239 1.93526,-0.87737 2.8201,-1.74645 3.71923,-3.65311 0.73143,-1.55105 0.75463,-1.85212 0.75763,-9.84 l 0.003,-8.24 h 1.76 1.76 v 12.48 12.48 h -1.76 -1.76 v -2.14217 -2.14217 l -0.7745,1.04978 c -1.17635,1.59446 -3.08086,2.84334 -5.163,3.38567 -2.041,0.53162 -2.80733,0.5563 -4.83252,0.15564 z m 27.84365,0.0178 c -3.53011,-0.74448 -6.59261,-3.23022 -8.22521,-6.67618 -0.96394,-2.03445 -1.00842,-2.30487 -1.00842,-6.12837 0,-3.8235 0.0445,-4.09392 1.00842,-6.1284 2.3296,-4.91707 7.4183,-7.65195 12.4103,-6.66984 2.58653,0.50887 4.14621,1.35531 5.99517,3.25356 L 385.6,180.20266 V 172.82133 165.44 h 1.76 1.76 v 17.6 17.6 h -1.76 -1.76 v -2.37037 -2.37037 l -2,1.99553 c -1.42118,1.41801 -2.46147,2.15204 -3.5945,2.53633 -2.01622,0.68384 -4.42512,0.8934 -6.13187,0.53346 z m 6.91648,-4.03007 c 3.04682,-1.65829 4.90819,-4.83702 4.9473,-8.44867 0.0443,-4.09351 -1.67171,-7.25428 -4.93741,-9.09423 -1.53952,-0.86738 -2.06067,-0.99068 -4.16,-0.98419 -2.9119,0.009 -4.41802,0.69688 -6.3625,2.90594 -2.3168,2.63201 -2.98137,7.18138 -1.59164,10.89572 0.84163,2.24948 3.08547,4.60185 5.09129,5.33757 2.09661,0.76902 4.92963,0.52174 7.01296,-0.61214 z m 22.42439,4.01265 c -6.57316,-1.3656 -10.80989,-7.94016 -9.62884,-14.94212 1.23047,-7.29499 7.08368,-11.87938 13.62365,-10.6704 2.69098,0.49745 4.38995,1.43223 6.19731,3.40975 2.04272,2.23508 2.9329,4.55419 3.15348,8.21561 l 0.16867,2.8 H 406.92438 397.12 l 0.007,0.88 c 0.009,1.13615 0.93648,3.15863 2.05722,4.48628 1.51558,1.79542 3.45987,2.7147 6.09993,2.88413 2.80845,0.18024 4.61184,-0.34851 6.88839,-2.01964 l 1.57276,-1.15452 1.13904,0.86879 1.13904,0.86878 -0.71324,0.75922 c -0.98586,1.0494 -3.39498,2.55591 -4.98346,3.11637 -1.74957,0.61728 -5.33056,0.8679 -7.11222,0.49775 z m 9.772,-15.41357 c -0.71703,-4.4841 -3.77255,-7.35758 -7.82365,-7.35758 -2.33795,0 -3.99325,0.80414 -5.73984,2.78837 -1.28512,1.45996 -2.30301,3.74619 -2.30301,5.17263 v 0.743 h 8.0409 8.04089 l -0.21529,-1.34641 z m -84.05687,15.14127 c -1.83337,-0.37927 -3.26771,-1.39736 -4.12963,-2.93122 -0.79062,-1.40695 -0.80122,-1.5259 -0.90288,-10.14364 l -0.10291,-8.72 H 322.05712 320.32 v -1.6 -1.6 h 1.76 1.76 v -3.68 -3.68 h 1.76 1.76 v 3.68 3.68 h 4 4 v 1.6 1.6 h -4.01968 -4.01965 l 0.0996,8.24 c 0.10998,9.09284 0.14266,9.24784 2.14822,10.19955 1.07156,0.50849 3.18951,0.48129 5.07146,-0.0651 0.66339,-0.19262 0.72,-0.10615 0.72,1.10005 0,1.10458 -0.13754,1.38023 -0.88032,1.76434 -1.11018,0.57409 -4.04266,0.8679 -5.55005,0.55606 z m 124.48,0 c -1.83337,-0.37927 -3.26771,-1.39736 -4.12963,-2.93122 -0.79062,-1.40695 -0.80122,-1.5259 -0.90288,-10.14364 l -0.10291,-8.72 H 446.53712 444.8 v -1.6 -1.6 h 1.76 1.76 v -3.68 -3.68 h 1.76 1.76 v 3.68 3.68 h 4 4 v 1.6 1.6 h -4.01968 -4.01965 l 0.0996,8.24 c 0.10998,9.09284 0.14266,9.24784 2.14822,10.19955 1.07156,0.50849 3.18951,0.48129 5.07146,-0.0651 0.66339,-0.19262 0.72,-0.10615 0.72,1.10005 0,1.10458 -0.13754,1.38023 -0.88032,1.76434 -1.11018,0.57409 -4.04266,0.8679 -5.55005,0.55606 z M 420.48,188.16 v -12.48 h 1.76 1.76 v 2.11461 2.11461 l 1.43059,-1.59115 c 1.94951,-2.16833 4.05306,-3.06165 7.20941,-3.06165 3.05603,0 5.28864,0.90988 6.99827,2.8521 2.09955,2.38524 2.28173,3.47175 2.28173,13.60823 V 200.64 h -1.74147 -1.74144 l -0.0986,-8.88 -0.0985,-8.88 -0.87958,-1.49626 c -1.26573,-2.15319 -3.65472,-3.30025 -6.36208,-3.05475 -2.66704,0.24184 -4.54234,1.44544 -5.84439,3.75101 l -0.99395,1.76 -0.10355,8.4 -0.10355,8.4 H 422.21645 420.48 Z m 18.88,-37.76 v -16.64 h 3.52 3.52 v 1.71045 1.71046 l 1.34054,-1.27523 c 1.98144,-1.8849 3.78186,-2.57809 6.65946,-2.56401 4.7015,0.023 8.25408,2.32063 10.2951,6.65833 0.95892,2.03795 1.06487,2.56615 1.1745,5.85583 0.10186,3.05732 0.0128,3.95067 -0.57658,5.78362 -0.8446,2.62682 -2.54048,4.9643 -4.61142,6.3562 -4.0817,2.74333 -9.80618,2.39484 -13.0816,-0.79639 l -1.2,-1.16915 v 5.50495 5.50494 h -3.52 -3.52 z m 16.61277,2.41887 c 1.85312,-1.28421 2.90921,-3.55707 2.90019,-6.2417 -0.009,-2.58765 -0.71072,-4.24045 -2.47802,-5.83383 -4.15315,-3.74439 -10.11056,-0.33053 -10.0776,5.7749 0.0128,2.3617 0.37322,3.5232 1.58746,5.11517 1.8328,2.40292 5.52774,2.94583 8.06797,1.18546 z m -147.08647,6.85708 c -3.67769,-0.76186 -6.25376,-2.78868 -7.97766,-6.2768 -1.11482,-2.25566 -1.19789,-2.6318 -1.32717,-6.00934 -0.15888,-4.15024 0.32919,-6.41346 1.92307,-8.91784 2.13949,-3.36167 5.38903,-5.11 9.53546,-5.1303 2.76749,-0.0135 4.69011,0.68677 6.9345,2.52587 l 1.3855,1.13531 V 130.74142 124.48 h 3.52 3.52 v 17.44 17.44 h -3.52 -3.52 v -1.80076 -1.80075 l -1.46378,1.34927 c -0.80508,0.7421 -2.06508,1.61219 -2.8,1.93352 -1.65484,0.72358 -4.41769,1.00595 -6.20992,0.63467 z m 6.23962,-6.25122 c 2.73802,-1.14402 4.04048,-3.35688 4.04048,-6.86473 0,-1.8185 -0.16285,-2.71013 -0.67206,-3.68 -2.62791,-5.00514 -8.98535,-4.82567 -11.33565,0.32 -0.73152,1.60156 -0.78259,4.86033 -0.10173,6.49028 1.39235,3.33313 5.01581,5.01014 8.06896,3.73445 z m 24.30288,6.24256 c -2.25322,-0.37883 -5.41741,-1.97591 -6.9488,-3.50729 -0.73875,-0.73876 -1.79699,-2.30098 -2.35158,-3.4716 -0.95888,-2.02385 -1.00807,-2.31702 -1.00119,-5.9684 0.01,-5.08125 0.64634,-6.79209 3.64349,-9.78926 2.73536,-2.73534 4.77469,-3.5822 8.66928,-3.60001 3.28086,-0.015 5.28835,0.59407 7.52,2.28158 2.90474,2.19649 4.52755,5.76899 4.864,10.70769 l 0.19072,2.8 h -9.00736 c -9.86205,0 -9.55773,-0.066 -8.55776,1.85589 1.87955,3.61248 7.22832,4.33427 10.96998,1.48035 l 1.06356,-0.81121 1.91843,1.68867 c 1.05513,0.92877 1.91843,1.77141 1.91843,1.87254 0,0.10113 -0.54,0.7022 -1.2,1.33571 -1.61846,1.55351 -4.06269,2.72347 -6.52419,3.12288 -2.28515,0.37079 -2.97424,0.37112 -5.16701,0.003 z M 346.87296,144.08 c -0.0112,-0.88897 -1.11766,-3.05505 -1.95075,-3.81868 -3.14231,-2.8804 -7.96083,-1.01623 -9.04339,3.49868 l -0.21101,0.88 h 5.60608 c 5.12851,0 5.6055,-0.0477 5.59907,-0.56 z M 377.92,159.6677 c -6.6439,-1.38025 -10.88813,-6.98857 -10.48346,-13.85285 0.21479,-3.64379 1.13239,-5.85337 3.46727,-8.34936 3.68061,-3.9346 8.98342,-5.21235 14.64915,-3.52981 1.5961,0.47398 4.69341,2.51431 5.00051,3.29403 0.0969,0.24591 -0.73987,1.37139 -1.95622,2.63132 l -2.12551,2.20161 -0.95424,-0.80294 c -1.6063,-1.35163 -2.86419,-1.84306 -4.7175,-1.84306 -3.74163,0 -6.40246,2.86664 -6.39821,6.89308 0.003,2.39183 0.46483,3.77253 1.77613,5.3045 2.23632,2.61263 6.21949,2.85164 9.22979,0.55383 l 1.39341,-1.06361 2.15696,2.17364 2.15699,2.17364 -1.87753,1.47799 c -1.03264,0.8129 -2.61949,1.75698 -3.52631,2.09797 -1.97062,0.74099 -5.79353,1.05503 -7.79123,0.64002 z m 24.32,-0.10367 c -6.67552,-1.45016 -10.85664,-6.96148 -10.49587,-13.8351 0.33363,-6.35618 4.92457,-11.25009 11.58973,-12.35454 3.97728,-0.65906 8.46176,0.61748 11.46928,3.26479 3.1222,2.7483 4.56489,6.32838 4.33273,10.75189 -0.25641,4.88521 -2.99622,8.96897 -7.39977,11.02966 -3.28304,1.53631 -6.11655,1.87746 -9.4961,1.1433 z m 6.32371,-6.51537 c 3.30979,-1.53836 4.61171,-6.24531 2.75696,-9.96732 -1.40752,-2.82454 -4.20521,-4.17632 -7.34,-3.5465 -3.18797,0.6405 -5.26067,3.36044 -5.26067,6.90336 0,5.51104 4.99389,8.86464 9.84371,6.61046 z m 69.51629,6.51537 c -6.67552,-1.45016 -10.85664,-6.96148 -10.49587,-13.8351 0.33363,-6.35618 4.92457,-11.25009 11.58973,-12.35454 3.97728,-0.65906 8.46176,0.61748 11.46928,3.26479 3.1222,2.7483 4.56489,6.32838 4.33273,10.75189 -0.25641,4.88521 -2.99622,8.96897 -7.39977,11.02966 -3.28304,1.53631 -6.11655,1.87746 -9.4961,1.1433 z m 6.32371,-6.51537 c 3.30979,-1.53836 4.61171,-6.24531 2.75696,-9.96732 -1.40752,-2.82454 -4.20521,-4.17632 -7.34,-3.5465 -3.18797,0.6405 -5.26067,3.36044 -5.26067,6.90336 0,5.51104 4.99389,8.86464 9.84371,6.61046 z M 422.08,146.56 v -12.8 h 3.52 3.52 l 0.0141,2.48 0.0141,2.48 0.6007,-1.13605 c 1.0225,-1.93381 3.221,-3.70443 5.09994,-4.1074 0.91443,-0.1961 1.79949,-0.35655 1.96682,-0.35655 0.17542,0 0.30425,1.62586 0.30425,3.84 v 3.84 l -1.2,0.007 c -2.40835,0.0141 -4.59459,1.48283 -5.94368,3.99297 -0.628,1.16848 -0.69769,1.85855 -0.80009,7.92 l -0.11216,6.64 h -3.49204 -3.49203 v -12.8 z m -112,-28.1723 c -6.6439,-1.38025 -10.88813,-6.98857 -10.48346,-13.85285 0.21479,-3.64379 1.13239,-5.85337 3.46727,-8.34936 3.68061,-3.9346 8.98342,-5.21235 14.64915,-3.52981 1.5961,0.47398 4.69341,2.51431 5.00051,3.29403 0.0969,0.24591 -0.73987,1.37139 -1.95622,2.63132 l -2.12551,2.20161 -0.95424,-0.80294 c -1.6063,-1.35163 -2.86419,-1.84306 -4.7175,-1.84306 -3.74163,0 -6.40246,2.86664 -6.39821,6.89308 0.003,2.39183 0.46483,3.77253 1.77613,5.3045 2.23632,2.61263 6.21949,2.85164 9.22979,0.55383 l 1.39341,-1.06361 2.15696,2.17364 2.15699,2.17364 -1.87753,1.47799 c -1.03264,0.8129 -2.61949,1.75698 -3.52631,2.09797 -1.97062,0.74099 -5.79353,1.05503 -7.79123,0.64002 z m 24.64,-0.10367 c -6.67552,-1.45016 -10.85664,-6.96148 -10.49587,-13.8351 0.33363,-6.35618 4.92457,-11.25009 11.58973,-12.35454 3.97728,-0.65906 8.46176,0.61748 11.46928,3.26479 3.1222,2.7483 4.56489,6.32838 4.33273,10.75189 -0.25641,4.88521 -2.99622,8.96897 -7.39977,11.02966 -3.28304,1.53631 -6.11655,1.87746 -9.4961,1.1433 z m 6.32371,-6.51537 c 3.30979,-1.53836 4.61171,-6.24531 2.75696,-9.96732 -1.40752,-2.82454 -4.20521,-4.17632 -7.34,-3.5465 -3.18797,0.6405 -5.26067,3.36044 -5.26067,6.90336 0,5.51104 4.99389,8.86464 9.84371,6.61046 z m 46.26547,6.61997 c -2.13513,-0.3815 -4.68147,-1.38682 -6.57542,-2.59602 l -1.50624,-0.96167 1.47318,-2.21547 c 0.81028,-1.21851 1.54192,-2.21547 1.62596,-2.21547 0.084,0 1.2815,0.56497 2.66112,1.25548 3.00099,1.50205 5.39318,1.90848 7.08137,1.20311 1.3761,-0.57498 1.78125,-1.54875 1.08592,-2.60995 -0.36704,-0.5602 -1.44672,-1.06766 -4.10653,-1.93013 -5.67756,-1.84101 -7.43417,-3.16266 -8.2431,-6.202 -1.04323,-3.9197 1.48899,-8.20912 5.528,-9.36416 3.19213,-0.91284 8.17517,-0.23606 11.49677,1.56144 l 1.51021,0.81726 -1.1602,2.11447 c -0.63811,1.16297 -1.27657,2.24616 -1.41881,2.4071 -0.1513,0.17115 -1.15997,-0.11837 -2.43002,-0.69747 -3.75769,-1.7134 -6.3896,-1.67101 -7.20381,0.11603 -0.34489,0.75695 -0.29737,0.91902 0.46068,1.57108 0.46489,0.39988 1.53971,0.98115 2.38851,1.29173 8.30605,3.03919 9.86333,4.43077 9.83222,8.78601 -0.033,4.61923 -3.18473,7.45328 -8.69702,7.82031 -1.18359,0.0788 -2.89485,0.0106 -3.80279,-0.15168 z m 24.75962,-0.001 c -2.25322,-0.37889 -5.41741,-1.97597 -6.9488,-3.50735 -0.73875,-0.73876 -1.79699,-2.30098 -2.35158,-3.4716 -0.95888,-2.02385 -1.00807,-2.31702 -1.00119,-5.9684 0.01,-5.08125 0.64634,-6.79209 3.64349,-9.78926 2.73536,-2.73534 4.77469,-3.5822 8.66928,-3.60001 3.28086,-0.015 5.28835,0.59407 7.52,2.28158 2.90474,2.19649 4.52755,5.76899 4.864,10.70769 l 0.19072,2.8 h -9.00736 c -9.86205,0 -9.55773,-0.066 -8.55776,1.85589 1.87955,3.61248 7.22832,4.33427 10.96998,1.48035 l 1.06356,-0.81121 1.91843,1.68867 c 1.05513,0.92877 1.91843,1.77141 1.91843,1.87254 0,0.10113 -0.54,0.7022 -1.2,1.33571 -1.61846,1.55351 -4.06269,2.72347 -6.52419,3.12288 -2.28515,0.37079 -2.97424,0.37112 -5.16701,0.003 z M 419.51296,102.8 c -0.0112,-0.88897 -1.11766,-3.05505 -1.95075,-3.81868 -3.14231,-2.8804 -7.96083,-1.01623 -9.04339,3.49868 l -0.21101,0.88 h 5.60608 c 5.12851,0 5.6055,-0.0477 5.59907,-0.56 z M 354.24,105.28 v -12.8 h 3.52 3.52 v 1.77114 1.77113 l 1.0112,-1.15169 c 0.55616,-0.63342 1.74416,-1.52941 2.64,-1.99109 3.34426,-1.72345 8.49373,-0.77471 10.57002,1.94742 1.62659,2.13261 1.77878,3.30499 1.77878,13.70395 V 118.08 h -3.52 -3.52 v -8.17275 c 0,-7.41194 -0.0569,-8.28424 -0.61101,-9.37041 C 368.86522,99.03968 367.69952,98.4 365.73501,98.4 c -1.80144,0 -3.0576,0.78145 -3.8945,2.42275 -0.48889,0.95876 -0.55958,2.11709 -0.56,9.17725 v 8.08 h -3.52 -3.52 v -12.8 z m 75.52,0 v -12.8 h 3.52 3.52 v 12.8 12.8 h -3.52 -3.52 z m 11.52,-4.64 V 83.2 h 3.52 3.52 v 17.44 17.44 h -3.52 -3.52 z M 429.44,86.4 v -3.2 h 3.68 3.68 v 3.2 3.2 h -3.68 -3.68 z"
     id="path817"
     inkscape:connector-curvature="0" />
</svg>
