<?xml version="1.0" encoding="utf-8"?>
<!-- Generator: Adobe Illustrator 24.1.0, SVG Export Plug-In . SVG Version: 6.00 Build 0)  -->
<svg version="1.1" xmlns="http://www.w3.org/2000/svg" xmlns:xlink="http://www.w3.org/1999/xlink" x="0px" y="0px"
	 viewBox="0 0 800 900" style="enable-background:new 0 0 800 900;" xml:space="preserve">
<style type="text/css">
	.st0{display:none;}
	.st1{display:inline;fill:#FF0000;}
	.st2{fill:#FFFFFF;}
</style>
<g id="Layer_2" class="st0">
	<rect x="-40" y="-21" class="st1" width="910" height="975"/>
</g>
<g id="Calque_1">
	<g>
		<path class="st2" d="M175.12,579.36l14,17.64l-6.02,4.78l-9.15-11.54l-5.84,4.64l9.15,11.54l-5.91,4.69l-9.15-11.54l-8.5,6.75
			l9.15,11.54l-6.04,4.79l-14-17.64L175.12,579.36z M194.11,580.45l5.63,7.1l-14.99-1.21l-3.42-4.31L194.11,580.45z"/>
		<path class="st2" d="M197.89,655.08l-1.06,11.69l-6.81-6.33l0.53-5.92c-3.33-0.84-6.36-2.53-9.07-5.05
			c-4.54-4.22-6.85-9.29-6.95-15.21c-0.09-5.92,1.87-11.05,5.9-15.37c2.69-2.89,5.85-4.89,9.5-6.01c3.65-1.12,7.35-1.25,11.12-0.4
			s7.06,2.58,9.87,5.19c4.29,3.99,6.53,8.96,6.73,14.92c0.2,5.96-1.77,11.16-5.91,15.61C207.92,652.29,203.31,654.58,197.89,655.08z
			 M198.61,647.1c2.9-0.67,5.37-2.11,7.41-4.3c2.66-2.86,3.96-6.19,3.88-9.99c-0.07-3.8-1.48-6.97-4.22-9.52
			c-2.82-2.63-6.09-3.85-9.81-3.68c-3.71,0.17-6.96,1.76-9.75,4.76c-3.11,3.34-4.37,7.1-3.77,11.28c0.47,3.27,1.89,6.01,4.28,8.23
			c1.37,1.28,2.91,2.21,4.61,2.79l1.06-11.99l6.86,6.38L198.61,647.1z"/>
		<path class="st2" d="M234.28,638.86l6.56,4.36l-14.77,22.22c-1.27,1.91-2,3.38-2.2,4.4c-0.19,1.02-0.06,2.02,0.39,3
			c0.46,0.99,1.23,1.84,2.32,2.57c1.15,0.77,2.32,1.16,3.51,1.19c1.18,0.02,2.21-0.27,3.07-0.87c0.86-0.6,2.06-2.06,3.59-4.36
			l14.23-21.4l6.56,4.36l-13.62,20.49c-2.3,3.46-4.09,5.73-5.37,6.81c-1.28,1.08-2.88,1.88-4.81,2.4c-1.93,0.52-3.81,0.6-5.64,0.25
			s-3.7-1.16-5.6-2.42c-2.49-1.66-4.28-3.67-5.37-6.04c-1.08-2.37-1.45-4.68-1.1-6.93c0.35-2.25,1.89-5.42,4.61-9.52L234.28,638.86z
			"/>
		<path class="st2" d="M268.64,660.21l6.93,3.58l-18.96,36.65l-6.93-3.58L268.64,660.21z"/>
		<path class="st2" d="M287.14,669.48l7.75,3.06c4.19,1.65,7.06,3.23,8.61,4.74c1.55,1.51,2.51,3.33,2.9,5.49
			c0.39,2.15,0.1,4.44-0.85,6.86c-1.06,2.68-2.64,4.63-4.74,5.85s-4.49,1.71-7.16,1.46c-1.57-0.16-4.21-0.97-7.93-2.44l-6.41,16.26
			l-7.31-2.88L287.14,669.48z M288.53,687.36l2.32,0.92c1.83,0.72,3.15,1.09,3.96,1.11c0.82,0.02,1.55-0.19,2.19-0.63
			c0.65-0.44,1.14-1.09,1.48-1.94c0.59-1.48,0.44-2.79-0.44-3.93c-0.64-0.83-2.08-1.7-4.35-2.59l-2.06-0.81L288.53,687.36z"/>
		<path class="st2" d="M320.85,681.81l21.82,5.58l-1.9,7.45l-14.27-3.65l-1.85,7.23l14.27,3.65l-1.87,7.31l-14.27-3.65l-2.69,10.52
			l14.27,3.65l-1.91,7.47l-21.82-5.58L320.85,681.81z"/>
		<path class="st2" d="M411.3,700.73l-5.65,5.07c-3.61-4.06-7.76-6.16-12.42-6.31c-3.94-0.12-7.3,1.12-10.08,3.74
			s-4.23,5.89-4.35,9.84c-0.08,2.75,0.44,5.21,1.57,7.38c1.13,2.17,2.77,3.9,4.92,5.18c2.15,1.28,4.56,1.96,7.23,2.05
			c2.28,0.07,4.37-0.29,6.29-1.09s4.03-2.28,6.36-4.45l5.15,5.72c-3.14,2.88-6.08,4.85-8.82,5.92c-2.75,1.07-5.86,1.55-9.33,1.44
			c-6.41-0.2-11.6-2.39-15.56-6.58c-3.96-4.19-5.84-9.46-5.65-15.82c0.13-4.11,1.17-7.74,3.12-10.88c1.96-3.14,4.7-5.63,8.23-7.47
			c3.53-1.84,7.29-2.7,11.29-2.57c3.4,0.1,6.66,0.92,9.76,2.46C406.45,695.89,409.1,698.01,411.3,700.73z"/>
		<path class="st2" d="M440.48,689.04c5.78-0.84,11.05,0.53,15.81,4.1c4.77,3.58,7.59,8.37,8.46,14.39
			c0.87,5.96-0.45,11.3-3.95,16.02c-3.5,4.72-8.18,7.51-14.03,8.36c-6.13,0.89-11.53-0.49-16.2-4.13
			c-4.67-3.65-7.43-8.39-8.28-14.21c-0.57-3.9-0.15-7.63,1.27-11.18c1.41-3.55,3.63-6.52,6.66-8.92S436.67,689.59,440.48,689.04z
			 M441.51,696.65c-3.78,0.55-6.76,2.33-8.96,5.33c-2.19,3-2.99,6.53-2.4,10.58c0.66,4.52,2.8,7.85,6.42,10.01
			c2.82,1.69,5.86,2.29,9.12,1.82c3.69-0.54,6.63-2.33,8.84-5.37c2.21-3.04,3.02-6.52,2.46-10.42c-0.57-3.89-2.35-6.98-5.35-9.3
			S445.25,696.11,441.51,696.65z"/>
		<path class="st2" d="M475.39,683.25l7.23-2.51l18.48,24.04l-0.33-30.35l7.22-2.51l20.08,36.7l-7.17,2.49l-12.73-23.16l0.28,27.49
			l-6.54,2.27l-16.76-21.76l4.28,26.1l-7.23,2.51L475.39,683.25z"/>
		<path class="st2" d="M525.95,663.6l6.6-3.87l22.8,19.99l-6.22-29.71l6.6-3.87l26.83,32.1l-6.55,3.84l-16.99-20.25l5.61,26.91
			l-5.97,3.5l-20.67-18.09l9.27,24.77l-6.61,3.87L525.95,663.6z"/>
		<path class="st2" d="M568.58,636.72l6.03-5.07l17.17,20.43c1.48,1.76,2.68,2.87,3.6,3.34s1.92,0.63,2.99,0.47s2.11-0.66,3.12-1.5
			c1.06-0.89,1.77-1.9,2.12-3.03c0.36-1.13,0.37-2.19,0.03-3.19c-0.34-1-1.4-2.56-3.18-4.67l-16.54-19.67l6.03-5.07l15.83,18.83
			c2.67,3.18,4.34,5.53,5.02,7.07c0.68,1.53,0.99,3.29,0.94,5.29c-0.05,1.99-0.5,3.82-1.35,5.48c-0.85,1.66-2.15,3.22-3.9,4.69
			c-2.29,1.93-4.73,3.07-7.31,3.45c-2.58,0.37-4.9,0.08-6.96-0.89c-2.06-0.97-4.67-3.33-7.84-7.1L568.58,636.72z"/>
		<path class="st2" d="M597.51,611.33l16.88-18.4l14.91,33.62l9.29-10.12l5.56,5.1l-17.05,18.58L612.3,606.7l-9.07,9.89
			L597.51,611.33z"/>
		<path class="st2" d="M619.48,584.51l4.26-5.64l3.08,2.33c1.96,1.49,3.47,3.01,4.52,4.56c1.05,1.55,1.89,3.47,2.52,5.76l-3.38,0.89
			c-0.38-1.16-0.77-2.09-1.16-2.8s-0.97-1.55-1.75-2.53l-1.71,2.26L619.48,584.51z"/>
	</g>
	<g>
		<path class="st2" d="M669.29,545.55l-6.01-15.5l15.48-5.99l6.02,15.47L669.29,545.55z"/>
		<path class="st2" d="M694.26,470.56l-9.88-13.37l13.36-9.85l9.88,13.34L694.26,470.56z"/>
		<path class="st2" d="M698.72,391.69l-13-10.35l10.36-12.98l13,10.32L698.72,391.69z"/>
		<path class="st2" d="M682.51,314.33l-15.27-6.57l6.58-15.24l15.26,6.54L682.51,314.33z"/>
		<path class="st2" d="M646.53,243.98l-16.46-2.34l2.35-16.43l16.44,2.32L646.53,243.98z"/>
		<path class="st2" d="M593.42,185.44l-16.5,2.02l-2-16.48l16.48-2.04L593.42,185.44z"/>
		<path class="st2" d="M526.9,142.76l-15.39,6.27l-6.24-15.38l15.37-6.28L526.9,142.76z"/>
		<path class="st2" d="M451.51,119.04l-13.2,10.1l-10.07-13.2l13.17-10.1L451.51,119.04z"/>
		<path class="st2" d="M372.56,115.87l-10.14,13.17l-13.15-10.14l10.11-13.17L372.56,115.87z"/>
		<path class="st2" d="M295.48,133.36l-6.31,15.38l-15.35-6.32l6.29-15.37L295.48,133.36z"/>
		<path class="st2" d="M225.75,170.51L223.68,187l-16.47-2.08l2.04-16.47L225.75,170.51z"/>
		<path class="st2" d="M168.11,224.55l2.29,16.46l-16.45,2.27l-2.31-16.44L168.11,224.55z"/>
		<path class="st2" d="M126.52,291.77l6.52,15.29l-15.28,6.5l-6.53-15.26L126.52,291.77z"/>
		<path class="st2" d="M104.06,367.54l10.32,13.03l-13.03,10.29l-10.32-13L104.06,367.54z"/>
		<path class="st2" d="M102.18,446.52l13.34,9.92l-9.92,13.31l-13.33-9.89L102.18,446.52z"/>
		<path class="st2" d="M120.94,523.3l15.48,6.06l-6.07,15.45l-15.47-6.03L120.94,523.3z"/>
	</g>
	<g>
		<g>
			<path class="st2" d="M722,261.35c-23-53,0-77-40-117s-78-31-139-60s-82.67-56.33-143-56.33s-82,27.33-143,56.33s-99,20-139,60
				s-17,64-40,117s-59,86-59,149s21,57,41,117s0,83,33,130s68,33,116.5,61s99.5,80,190.5,80s142-52,190.5-80s83.5-14,116.5-61
				s13-70,33-130s41-54,41-117S745,314.35,722,261.35z M400,763.92c-193.06,0-349.57-156.51-349.57-349.57
				C50.43,221.29,206.94,64.78,400,64.78c193.06,0,349.57,156.51,349.57,349.57C749.57,607.41,593.06,763.92,400,763.92z"/>
		</g>
		<g>
			<path class="st2" d="M400,72.11c-188.92,0-342.07,153.15-342.07,342.07c0,188.92,153.15,342.07,342.07,342.07
				s342.07-153.15,342.07-342.07C742.07,225.26,588.92,72.11,400,72.11z M400,749.85c-185.39,0-335.67-150.29-335.67-335.67
				S214.61,78.51,400,78.51S735.67,228.8,735.67,414.18S585.39,749.85,400,749.85z"/>
		</g>
		<g>
			<path class="st2" d="M400,152.32c-144.62,0-261.86,117.24-261.86,261.86c0,144.62,117.24,261.86,261.86,261.86
				c144.62,0,261.86-117.24,261.86-261.86C661.86,269.56,544.62,152.32,400,152.32z M400,673.74
				c-143.35,0-259.56-116.21-259.56-259.56c0-143.35,116.21-259.56,259.56-259.56c143.35,0,259.56,116.21,259.56,259.56
				C659.56,557.53,543.35,673.74,400,673.74z"/>
		</g>
		<g>
			<path class="st2" d="M222.85,414.35c0.01,11.53,1.13,22.79,3.25,33.71l16.83-3.35c-1.9-9.83-2.91-19.98-2.92-30.36H222.85z"/>
		</g>
		<g>
			<path class="st2" d="M400,574.18c-10.9,0-21.54-1.1-31.83-3.17l-3.35,16.83c11.37,2.29,23.13,3.5,35.18,3.5
				c11.85,0,23.42-1.17,34.62-3.39l-3.35-16.83C421.16,573.12,410.7,574.18,400,574.18z"/>
		</g>
		<g>
			<path class="st2" d="M489.21,547.02l9.53,14.27c19.41-13.05,36.09-29.85,49.01-49.36l-14.27-9.53
				C521.82,520.03,506.75,535.22,489.21,547.02z"/>
		</g>
		<g>
			<path class="st2" d="M266.17,501.89l-14.27,9.53c12.9,19.61,29.58,36.51,49.02,49.65l9.53-14.27
				C292.89,534.92,277.82,519.63,266.17,501.89z"/>
		</g>
		<g>
			<path class="st2" d="M400,157.18c-141.94,0-257,115.06-257,257c0,141.94,115.06,257,257,257c141.94,0,257-115.06,257-257
				C657,272.25,541.94,157.18,400,157.18z M646.92,462.98c-6.46,32.86-19.31,63.42-37.21,90.35l-55.47-37.06
				c-13.5,20.35-30.91,37.88-51.17,51.51l37.06,55.47c-27.07,18.18-57.86,31.23-90.98,37.79l-13.01-65.43
				c-11.69,2.32-23.77,3.54-36.14,3.54c-12.57,0-24.84-1.26-36.7-3.65l-13.02,65.43c-33.05-6.62-63.76-19.71-90.75-37.9l37.06-55.47
				c-20.29-13.71-37.7-31.34-51.18-51.8l-55.47,37.06c-17.79-26.91-30.55-57.42-36.95-90.23l65.43-13.02
				c-2.21-11.4-3.38-23.18-3.4-35.23h-66.85c0-0.06,0-0.11,0-0.17c0-139.07,112.74-251.81,251.81-251.81
				s251.81,112.74,251.81,251.81c0,0.06,0,0.11,0,0.17h-66.85c-0.01,12.18-1.21,24.09-3.47,35.61L646.92,462.98z"/>
		</g>
		<g>
			<path class="st2" d="M557,445.09l16.83,3.35c2.16-11.03,3.31-22.43,3.32-34.09H560C559.99,424.87,558.95,435.14,557,445.09z"/>
		</g>
	</g>
	<g>
		<path class="st2" d="M255.52,846.21h13.89v4.72h-4.58v20.42h-4.85v-20.42h-4.46V846.21z"/>
		<path class="st2" d="M283.87,846.21h4.85l9.67,25.14h-4.97l-1.97-5.18h-10.26l-2.04,5.18h-4.97L283.87,846.21z M286.32,852.88
			l-3.37,8.63h6.73L286.32,852.88z"/>
		<path class="st2" d="M305.59,846.21h4.79v20.58h6.97v4.56h-11.76V846.21z"/>
		<path class="st2" d="M324.5,846.21h13.72v4.68h-8.97v4.55h8.97v4.6h-8.97v6.61h8.97v4.7H324.5V846.21z"/>
		<path class="st2" d="M346.2,846.21h4.59l10.76,16.54v-16.54h4.79v25.14h-4.6l-10.74-16.49v16.49h-4.79V846.21z"/>
		<path class="st2" d="M373.1,846.21h13.89v4.72h-4.58v20.42h-4.85v-20.42h-4.46V846.21z"/>
		<path class="st2" d="M406.73,846.21h4.75v25.14h-4.75V846.21z"/>
		<path class="st2" d="M420.38,846.21h4.59l10.76,16.54v-16.54h4.79v25.14h-4.6l-10.74-16.49v16.49h-4.79V846.21z"/>
		<path class="st2" d="M462.94,849.63l-3.54,3.13c-1.24-1.73-2.51-2.6-3.8-2.6c-0.63,0-1.14,0.17-1.54,0.5
			c-0.4,0.34-0.6,0.72-0.6,1.14c0,0.42,0.14,0.82,0.43,1.2c0.39,0.5,1.56,1.58,3.51,3.23c1.83,1.53,2.93,2.49,3.32,2.89
			c0.97,0.98,1.66,1.92,2.06,2.81c0.4,0.89,0.61,1.87,0.61,2.93c0,2.06-0.71,3.77-2.14,5.11c-1.43,1.34-3.29,2.02-5.58,2.02
			c-1.79,0-3.35-0.44-4.68-1.32c-1.33-0.88-2.47-2.26-3.41-4.14l4.02-2.43c1.21,2.22,2.6,3.33,4.18,3.33c0.82,0,1.51-0.24,2.07-0.72
			c0.56-0.48,0.84-1.03,0.84-1.66c0-0.57-0.21-1.14-0.63-1.71c-0.42-0.57-1.35-1.44-2.79-2.62c-2.74-2.23-4.51-3.96-5.31-5.17
			c-0.8-1.21-1.2-2.42-1.2-3.63c0-1.74,0.66-3.24,1.99-4.49c1.33-1.25,2.97-1.87,4.92-1.87c1.25,0,2.45,0.29,3.58,0.87
			C460.39,847.03,461.62,848.09,462.94,849.63z"/>
		<path class="st2" d="M471.11,846.21h4.75v25.14h-4.75V846.21z"/>
		<path class="st2" d="M484.76,846.21h5.67c3.65,0,6.37,0.45,8.14,1.36c1.78,0.91,3.24,2.38,4.39,4.42
			c1.15,2.04,1.72,4.42,1.72,7.14c0,1.94-0.32,3.72-0.96,5.34c-0.64,1.62-1.53,2.97-2.66,4.04c-1.13,1.07-2.36,1.81-3.68,2.22
			s-3.61,0.62-6.86,0.62h-5.75V846.21z M489.51,850.82v15.86h2.22c2.19,0,3.77-0.25,4.76-0.75s1.79-1.35,2.42-2.53
			c0.63-1.19,0.94-2.65,0.94-4.38c0-2.67-0.75-4.74-2.24-6.21c-1.34-1.32-3.5-1.99-6.48-1.99H489.51z"/>
		<path class="st2" d="M512.77,846.21h13.72v4.68h-8.97v4.55h8.97v4.6h-8.97v6.61h8.97v4.7h-13.72V846.21z"/>
		<path class="st2" d="M536.48,866.48c0.74,0,1.37,0.26,1.9,0.78c0.52,0.52,0.79,1.15,0.79,1.89c0,0.74-0.26,1.37-0.79,1.9
			c-0.52,0.52-1.16,0.79-1.9,0.79c-0.74,0-1.37-0.26-1.9-0.79c-0.52-0.52-0.79-1.16-0.79-1.9c0-0.74,0.26-1.37,0.79-1.89
			C535.11,866.74,535.74,866.48,536.48,866.48z"/>
	</g>
	<g>
		<g>
			<g>
				<path class="st2" d="M367.86,348.47c0.68,8.5,2.06,19.53,5,32.17c4.5,19.34,10.45,33.02,11.93,36.35
					c5.89,13.29,10.43,23.53,20.49,34.52c9.71,10.63,19.69,16.63,24.34,19.38c8.65,5.12,16.59,8.26,22.61,10.22
					c-1.26,2.68-2.57,6.38-4.62,9.62c-3.14,4.97-6.61,9.76-10.26,14.37c-5.96,7.51-15.1,16.98-29.72,21.21
					c-16.4,4.74-30.51-0.35-35.73-2.24c-11.12-4.02-18.54-10.27-21.91-13.16c-7.66-6.57-8.55-9.38-20.73-22.22
					c-3.75-3.95-7.81-7.6-11.76-11.35c-7.08-6.72-11.47-15.12-14.33-24.23c-1.43-4.56-4.01-13.07-8.37-30.38
					c-3.85-15.29-4.91-20.6-5.39-23.09c-1.22-6.3-1.93-11.2-3.36-21c-0.94-6.45-1.24-9.07-1.39-12.33
					c-0.11-2.48-0.29-8.59,0.46-14.31c1.62-12.28,7.38-21.29,10.89-26.79c6.15-9.64,13.35-16.51,19.38-21.21
					c-2,2.65-4.84,6.64-7.83,11.74c-5.8,9.91-9.15,16.63-9.45,25.23c-0.21,6.12,2.52,11.45,6.84,15.81c1.85,1.87,6.61,1.13,8.2-0.91
					c2.88-3.69,5.72-7.55,10.62-8.72c4.45-1.07,8.37,0.21,11.93,3.06c3.42,2.74,6.82,5.44,11.59,5.72
					C354.32,356.37,361.68,352.47,367.86,348.47z M358.93,420.9c-2.43-2.77-4.33-5.85-7.03-7.85c-8.9-6.59-19.35-6.72-29.83-6.22
					c-0.39,0.02-0.84,0.18-1.16,0.41c-3.64,2.67-7.29,5.33-10.85,8.1c-0.42,0.33-0.7,1.54-0.43,1.91c2.01,2.8,3.86,6,5.73,7.23
					c12.19,7.97,25.84,5.39,25.84,5.39C349.93,428.22,355.94,423.61,358.93,420.9z"/>
			</g>
			<g>
				<path class="st2" d="M399.18,340.08c-0.68-5.92-1.53-14.6-1.98-25.13c-0.61-14.43-1.07-25.27,0.29-34.95
					c4.61-32.93,32.63-66.71,60.85-69.1c0.21-0.02-7.34,21.99-7.34,21.99s7.3-5.89,26.19-5.87c-3.15,6.79-8.84,19.83-8.92,20.38
					c0.5,0,17.08-8.08,37.18-2.66c-9.47,9.12-18.24,31.06-19.79,31.6c-18.72,6.49-37.95,16.86-54.54,29.12
					c-8.74,6.46-15.21,13.92-20.72,20.27C405.64,331.2,401.92,336.18,399.18,340.08z"/>
			</g>
			<g>
				<path class="st2" d="M306.95,349.75c-5.73-10.61-2.85-20.6,3.37-30.08c7.78-11.85,12.52-17.29,24.97-23.51
					c13.13-6.56,34.06-8.97,48.08-10.96c0.6-0.09,1.23,0.05,2.88,0.13c-2.76,2.29-8.45,7.64-11.73,16.55
					c-2.83,7.7-2.52,14.43-2.12,17.93c0,0-33.91,1.54-46.65,13.27C319.58,338.75,313.2,344.21,306.95,349.75z"/>
			</g>
			<g>
				<path class="st2" d="M398.43,409.47c0.2-6.57,2.38-11.08,3.66-13.31c2.05-3.55,4.48-5.83,6.53-7.75
					c2.15-2.02,5.07-4.75,8.9-6.49c7.23-3.28,14.65-1.62,18.1-0.57c0.38,1.42,0.79,3.67,0.36,6.32c-0.29,1.8-1.05,4.3-4.08,8.12
					c-1.98,2.5-6.77,8.39-15.47,11.82c-6.87,2.71-12.58,2.47-13.7,2.41C400.96,409.93,399.48,409.69,398.43,409.47z"/>
			</g>
			<g>
				<path class="st2" d="M426.31,372.58c-4.52-0.37-8.16,0.18-10.56,0.71c-2.29,0.51-4.88,1.12-7.75,2.84
					c-2.97,1.79-3.66,3.23-6.03,5.17c-2.1,1.73-5.44,3.78-10.7,4.87c1.18-2.17,5.3-9.12,14.08-12.89
					C415.28,369.04,424.2,371.85,426.31,372.58z"/>
			</g>
		</g>
	</g>
</g>
</svg>
