<?xml version="1.0" encoding="UTF-8" standalone="no"?>
<svg
   xmlns:dc="http://purl.org/dc/elements/1.1/"
   xmlns:cc="http://creativecommons.org/ns#"
   xmlns:rdf="http://www.w3.org/1999/02/22-rdf-syntax-ns#"
   xmlns:svg="http://www.w3.org/2000/svg"
   xmlns="http://www.w3.org/2000/svg"
   xmlns:sodipodi="http://sodipodi.sourceforge.net/DTD/sodipodi-0.dtd"
   xmlns:inkscape="http://www.inkscape.org/namespaces/inkscape"
   viewBox="0 0 70 70"
   version="1.1"
   id="svg10"
   sodipodi:docname="logo_full.svg"
   inkscape:version="0.92.2 (5c3e80d, 2017-08-06)">
  <metadata
     id="metadata16">
    <rdf:RDF>
      <cc:Work
         rdf:about="">
        <dc:format>image/svg+xml</dc:format>
        <dc:type
           rdf:resource="http://purl.org/dc/dcmitype/StillImage" />
        <dc:title></dc:title>
      </cc:Work>
    </rdf:RDF>
  </metadata>
  <defs
     id="defs14" />
  <sodipodi:namedview
     pagecolor="#ffffff"
     bordercolor="#666666"
     borderopacity="1"
     objecttolerance="10"
     gridtolerance="10"
     guidetolerance="10"
     inkscape:pageopacity="0"
     inkscape:pageshadow="2"
     inkscape:window-width="1920"
     inkscape:window-height="1016"
     id="namedview12"
     showgrid="false"
     inkscape:pagecheckerboard="true"
     inkscape:zoom="12.033407"
     inkscape:cx="35.166204"
     inkscape:cy="34.40678"
     inkscape:window-x="0"
     inkscape:window-y="27"
     inkscape:window-maximized="1"
     inkscape:current-layer="svg10" />
  <path
     style="fill:#ffffff;fill-opacity:1"
     d="M 35 1.1992188 A 33.799999 33.799999 0 0 0 1.1992188 35 A 33.799999 33.799999 0 0 0 35 68.800781 A 33.799999 33.799999 0 0 0 68.800781 35 A 33.799999 33.799999 0 0 0 35 1.1992188 z M 22.474609 23.949219 C 23.149609 23.949219 23.899219 23.999219 24.199219 24.199219 C 24.799219 24.599219 25.000391 25.199609 24.900391 26.099609 C 24.900391 26.899609 24.6 28.099609 22.5 28.099609 L 22.5 29.900391 L 21.199219 29.900391 L 21.199219 24 C 21.199219 24 21.799609 23.949219 22.474609 23.949219 z M 41.416016 23.974609 C 42.175391 23.974609 43.749219 24.2 44.199219 26 L 46.699219 26 L 46.699219 25.800781 L 47.599609 25.800781 L 47.800781 27.800781 L 46.900391 27.800781 L 46.800781 27.699219 L 44.199219 27.800781 C 43.799219 30.300781 41.199219 30 41.199219 30 L 41 24 C 41 24 41.162891 23.974609 41.416016 23.974609 z M 10.699219 24 L 11.800781 24.099609 L 11.800781 28.900391 L 14.900391 28.900391 L 14.900391 29.900391 L 10.699219 30 L 10.699219 24 z M 39.699219 24 L 39.699219 25 L 38.099609 25 L 38.199219 29.900391 L 37.199219 29.900391 L 37 25 L 35.599609 25 L 35.599609 24.099609 L 39.699219 24 z M 15.199219 24.099609 L 19 24.099609 L 19 24.900391 L 16.099609 25 L 16.099609 26.599609 L 18.300781 26.599609 L 18.300781 27.599609 L 16.099609 27.599609 L 16.199219 28.800781 L 19.099609 28.699219 L 19.099609 29.900391 L 15.300781 30 L 15.199219 24.099609 z M 25.300781 24.099609 L 29.199219 24.099609 L 29.199219 25 L 26.300781 25.099609 L 26.199219 26.599609 L 28.400391 26.599609 L 28.5 27.599609 L 26.300781 27.599609 L 26.199219 28.800781 L 29.199219 28.800781 L 29.199219 29.900391 L 25.300781 29.900391 L 25.300781 24.099609 z M 29.599609 24.099609 L 33.699219 24.099609 L 33.699219 25 L 32.099609 25.099609 L 32.199219 30 L 31 30 L 31.099609 25 L 29.599609 25 L 29.599609 24.099609 z M 34.099609 24.099609 L 35.199219 24.099609 L 35.199219 30 L 34.099609 30.099609 L 34.099609 24.099609 z M 47.800781 26.900391 C 48.100781 27.000391 49.100391 27.600391 48.900391 28.900391 C 48.713604 29.983754 48.666792 30.92622 48.753906 31.730469 L 51.300781 32.099609 C 51.300781 32.099609 53.299219 41.500781 46.699219 40.800781 L 46.199219 44.599609 C 48.199219 44.899609 49.599609 45.399219 49.599609 45.699219 C 49.599609 46.099219 47.700391 46.100781 45.400391 45.800781 C 43.100391 45.500781 41.300781 44.999609 41.300781 44.599609 C 41.400781 44.199609 42.999609 44.200391 45.099609 44.400391 L 45.599609 40.599609 C 38.999609 38.999609 43.699219 31 43.699219 31 L 47.744141 31.585938 C 47.778062 31.204975 47.84182 30.81166 48 30.400391 C 48.8 28.200391 48.200391 27.6 47.900391 27.5 L 47.800781 26.900391 z M 27.099609 31 L 29.099609 31 L 29.5 39.300781 L 34 39.300781 L 34.099609 41.099609 L 27.599609 41.199219 L 27.099609 31 z M 34.599609 31 L 36.599609 31 L 37 39.300781 L 41.599609 39.300781 L 41.599609 41.199219 L 35 41.199219 L 34.599609 31 z M 53 31 L 54.699219 31 L 57.800781 37.400391 L 57.800781 31 L 59.599609 31 L 59.599609 41.199219 L 57.800781 41.199219 L 54.900391 35.599609 L 55 41.300781 L 53.199219 41.300781 L 53 31 z M 12.386719 31.058594 C 12.724219 31.063281 13.1 31.074609 13.5 31.099609 C 14.9 31.199609 16.499609 31.000781 16.599609 32.800781 C 16.699609 34.800781 15.300781 34.800781 15.300781 34.800781 C 16.300781 35.100781 16.900391 36.000391 16.900391 37.900391 C 16.900391 39.900391 16.599219 41.200781 14.699219 41.300781 C 12.799219 41.400781 10.699219 41.300781 10.699219 41.300781 L 10.699219 31.099609 C 10.699219 31.099609 11.374219 31.044531 12.386719 31.058594 z M 21.300781 31.099609 L 23 31.099609 L 26.5 41.199219 L 24.5 41.199219 L 23.300781 37.800781 L 21 37.800781 L 19.599609 41.199219 L 17.199219 41.199219 L 21.300781 31.099609 z "
     id="circle2" />
</svg>
