<?xml version="1.0" encoding="UTF-8" standalone="no"?>
<!-- Created with Inkscape (http://www.inkscape.org/) -->

<svg
   xmlns:dc="http://purl.org/dc/elements/1.1/"
   xmlns:cc="http://creativecommons.org/ns#"
   xmlns:rdf="http://www.w3.org/1999/02/22-rdf-syntax-ns#"
   xmlns:svg="http://www.w3.org/2000/svg"
   xmlns="http://www.w3.org/2000/svg"
   xmlns:sodipodi="http://sodipodi.sourceforge.net/DTD/sodipodi-0.dtd"
   xmlns:inkscape="http://www.inkscape.org/namespaces/inkscape"
   version="1.1"
   id="svg2"
   xml:space="preserve"
   width="242.66667"
   height="432"
   viewBox="0 0 242.66667 432"
   sodipodi:docname="udl-blason-blanc.svg"
   inkscape:version="0.92.2 (5c3e80d, 2017-08-06)"><metadata
     id="metadata8"><rdf:RDF><cc:Work
         rdf:about=""><dc:format>image/svg+xml</dc:format><dc:type
           rdf:resource="http://purl.org/dc/dcmitype/StillImage" /><dc:title></dc:title></cc:Work></rdf:RDF></metadata><defs
     id="defs6"><clipPath
       clipPathUnits="userSpaceOnUse"
       id="clipPath18"><path
         d="M 0,324 H 182 V 0 H 0 Z"
         id="path16"
         inkscape:connector-curvature="0" /></clipPath></defs><sodipodi:namedview
     pagecolor="#ffffff"
     bordercolor="#666666"
     borderopacity="1"
     objecttolerance="10"
     gridtolerance="10"
     guidetolerance="10"
     inkscape:pageopacity="0"
     inkscape:pageshadow="2"
     inkscape:window-width="1920"
     inkscape:window-height="1016"
     id="namedview4"
     showgrid="false"
     inkscape:pagecheckerboard="true"
     inkscape:zoom="1.9803241"
     inkscape:cx="122.34327"
     inkscape:cy="216"
     inkscape:window-x="0"
     inkscape:window-y="27"
     inkscape:window-maximized="1"
     inkscape:current-layer="g10" /><g
     id="g10"
     inkscape:groupmode="layer"
     inkscape:label="udl-blason-blanc"
     transform="matrix(1.3333333,0,0,-1.3333333,0,432)"><g
       id="g12"><g
         id="g14"
         clip-path="url(#clipPath18)"><g
           id="g20"
           transform="translate(38.4218,284.6881)"><path
             d="m 0,0 c 0,-1.241 -0.229,-2.129 -0.687,-2.665 -0.458,-0.536 -0.908,-0.804 -1.782,-0.804 -0.848,0 -1.323,0.282 -1.789,0.844 -0.467,0.563 -0.7,1.437 -0.7,2.625 V 13.272 H -8.571 V 0 c 0,-2.071 0.578,-3.674 1.736,-4.808 1.158,-1.134 2.492,-1.701 4.366,-1.701 1.875,0 3.175,0.565 4.333,1.695 C 3.021,-3.685 3.6,-2.08 3.6,0 V 13.272 H 0 Z"
             style="fill:#ffffff;fill-opacity:1;fill-rule:nonzero;stroke:none"
             id="path22"
             inkscape:connector-curvature="0" /></g><g
           id="g24"
           transform="translate(54.5005,285.5318)"><path
             d="M 0,0 -0.076,-0.027 -5.738,12.428 H -9.364 V -7.071 h 3.626 V 5.37 L -5.661,5.397 0,-7.071 H 3.6 V 12.428 H 0 Z"
             style="fill:#ffffff;fill-opacity:1;fill-rule:nonzero;stroke:none"
             id="path26"
             inkscape:connector-curvature="0" /></g><path
           d="m 65.341,297.96 h -3.6 v -19.499 h 3.6 z"
           style="fill:#ffffff;fill-opacity:1;fill-rule:nonzero;stroke:none"
           id="path28"
           inkscape:connector-curvature="0" /><g
           id="g30"
           transform="translate(76.6538,278.4608)"><path
             d="M 0,0 5.178,19.499 H 1.374 L -1.718,4.942 -1.857,4.232 h -0.077 l -0.14,0.75 -3.066,14.517 H -8.944 L -3.766,0 Z"
             style="fill:#ffffff;fill-opacity:1;fill-rule:nonzero;stroke:none"
             id="path32"
             inkscape:connector-curvature="0" /></g><g
           id="g34"
           transform="translate(94.9508,281.5007)"><path
             d="m 0,0 h -7.315 v 5.518 h 6.221 v 3.04 h -6.221 v 4.861 h 7.29 v 3.04 H -10.941 V -3.04 L 0,-3.04 Z"
             style="fill:#ffffff;fill-opacity:1;fill-rule:nonzero;stroke:none"
             id="path36"
             inkscape:connector-curvature="0" /></g><g
           id="g38"
           transform="translate(103.7679,289.2547)"><path
             d="m 0,0 h -2.417 v 5.652 h 2.43 C 0.742,5.652 1.297,5.388 1.679,4.861 2.061,4.334 2.252,3.625 2.252,2.732 2.252,1.857 2.061,1.183 1.679,0.71 1.297,0.237 0.738,0 0,0 m 1.826,-3.843 c 0.377,-0.536 0.566,-1.291 0.566,-2.264 v -1.326 c 0,-0.669 0.038,-1.325 0.114,-1.968 0.076,-0.643 0.263,-1.107 0.56,-1.393 h 3.74 v 0.281 c -0.297,0.277 -0.504,0.721 -0.623,1.333 -0.119,0.611 -0.178,1.185 -0.178,1.721 v 1.379 c 0,1.179 -0.21,2.161 -0.63,2.946 -0.42,0.786 -1.105,1.348 -2.055,1.688 0.831,0.437 1.464,1.024 1.896,1.761 0.433,0.736 0.649,1.613 0.649,2.631 0,1.804 -0.52,3.212 -1.558,4.226 C 3.267,8.185 1.836,8.691 0.013,8.691 H -6.03 v -19.485 h 3.613 v 7.754 h 2.62 c 0.705,0 1.245,-0.268 1.623,-0.803"
             style="fill:#ffffff;fill-opacity:1;fill-rule:nonzero;stroke:none"
             id="path40"
             inkscape:connector-curvature="0" /></g><g
           id="g42"
           transform="translate(119.4724,289.8441)"><path
             d="m 0,0 c -1.111,0.509 -1.891,0.971 -2.341,1.386 -0.449,0.415 -0.674,0.944 -0.674,1.587 0,0.696 0.201,1.274 0.604,1.734 0.403,0.46 0.965,0.69 1.686,0.69 0.772,0 1.37,-0.277 1.794,-0.83 C 1.493,4.013 1.705,3.29 1.705,2.397 h 3.512 l 0.025,0.08 C 5.276,4.183 4.741,5.595 3.639,6.716 2.536,7.836 1.103,8.397 -0.661,8.397 -2.4,8.397 -3.829,7.895 -4.949,6.89 -6.068,5.886 -6.628,4.584 -6.628,2.986 c 0,-1.616 0.481,-2.872 1.444,-3.77 0.962,-0.897 2.406,-1.698 4.332,-2.403 0.941,-0.429 1.599,-0.864 1.972,-1.306 0.373,-0.442 0.56,-1.043 0.56,-1.801 0,-0.733 -0.185,-1.313 -0.554,-1.741 -0.369,-0.429 -0.935,-0.643 -1.699,-0.643 -0.975,0 -1.704,0.263 -2.188,0.79 -0.483,0.527 -0.725,1.393 -0.725,2.598 H -7.01 l -0.025,-0.08 c -0.043,-2.027 0.583,-3.583 1.876,-4.668 1.294,-1.084 2.822,-1.627 4.586,-1.627 1.773,0 3.194,0.478 4.263,1.433 1.068,0.956 1.603,2.277 1.603,3.964 0,1.634 -0.444,2.931 -1.33,3.891 C 3.077,-1.418 1.756,-0.625 0,0"
             style="fill:#ffffff;fill-opacity:1;fill-rule:nonzero;stroke:none"
             id="path44"
             inkscape:connector-curvature="0" /></g><path
           d="m 127.872,278.461 h 3.6 v 19.499 h -3.6 z"
           style="fill:#ffffff;fill-opacity:1;fill-rule:nonzero;stroke:none"
           id="path46"
           inkscape:connector-curvature="0" /><g
           id="g48"
           transform="translate(133.7269,294.9196)"><path
             d="M 0,0 H 4.148 V -16.459 H 7.761 V 0 h 4.173 V 3.04 H 0 Z"
             style="fill:#ffffff;fill-opacity:1;fill-rule:nonzero;stroke:none"
             id="path50"
             inkscape:connector-curvature="0" /></g><g
           id="g52"
           transform="translate(157.431,302.8343)"><path
             d="m 0,0 -0.038,0.08 h -3.804 l -2.239,-3.555 2.913,-0.007 z"
             style="fill:#ffffff;fill-opacity:1;fill-rule:nonzero;stroke:none"
             id="path54"
             inkscape:connector-curvature="0" /></g><g
           id="g56"
           transform="translate(151.6803,281.5007)"><path
             d="m 0,0 v 5.518 h 6.221 v 3.04 H 0 v 4.861 h 7.29 v 3.04 H -3.626 V -3.04 H 7.315 V 0 Z"
             style="fill:#ffffff;fill-opacity:1;fill-rule:nonzero;stroke:none"
             id="path58"
             inkscape:connector-curvature="0" /></g><g
           id="g60"
           transform="translate(38.3875,263.2012)"><path
             d="M 0,0 C 0,-1.528 -0.274,-2.755 -0.821,-3.68 -1.368,-4.605 -2.146,-5.067 -3.155,-5.067 H -4.924 V 8.352 h 1.769 c 1.009,0 1.787,-0.461 2.334,-1.381 C -0.274,6.05 0,4.83 0,3.311 Z M -2.952,11.392 H -8.55 V -8.107 h 5.598 c 1.9,0 3.469,0.754 4.708,2.263 1.238,1.509 1.857,3.455 1.857,5.839 v 3.281 c 0,2.384 -0.619,4.332 -1.857,5.846 -1.239,1.513 -2.808,2.27 -4.708,2.27"
             style="fill:#ffffff;fill-opacity:1;fill-rule:nonzero;stroke:none"
             id="path62"
             inkscape:connector-curvature="0" /></g><g
           id="g64"
           transform="translate(48.7587,263.6517)"><path
             d="M 0,0 H 6.221 V 3.04 H 0 v 4.861 h 7.29 v 3.04 H -3.626 V -8.558 H 7.315 v 3.04 H 0 Z"
             style="fill:#ffffff;fill-opacity:1;fill-rule:nonzero;stroke:none"
             id="path66"
             inkscape:connector-curvature="0" /></g><g
           id="g68"
           transform="translate(68.3849,274.593)"><path
             d="m 0,0 h -3.626 v -19.499 h 9.939 v 3.04 H 0 Z"
             style="fill:#ffffff;fill-opacity:1;fill-rule:nonzero;stroke:none"
             id="path70"
             inkscape:connector-curvature="0" /></g><g
           id="g72"
           transform="translate(79.9931,266.2362)"><path
             d="M 0,0 H -0.076 L -3.13,8.357 h -3.957 l 5.204,-12.321 v -7.178 H 1.73 v 6.937 L 7.023,8.357 H 3.091 Z"
             style="fill:#ffffff;fill-opacity:1;fill-rule:nonzero;stroke:none"
             id="path74"
             inkscape:connector-curvature="0" /></g><g
           id="g76"
           transform="translate(97.316,262.097)"><path
             d="m 0,0 c 0,-1.415 -0.246,-2.476 -0.738,-3.183 -0.492,-0.707 -1.204,-1.061 -2.138,-1.061 -0.941,0 -1.653,0.354 -2.137,1.061 -0.483,0.707 -0.725,1.768 -0.725,3.183 v 5.507 c 0,1.405 0.237,2.462 0.713,3.169 0.474,0.707 1.187,1.061 2.137,1.061 0.941,0 1.658,-0.356 2.15,-1.068 C -0.246,7.957 0,6.903 0,5.507 Z M -2.888,12.777 C -4.839,12.777 -6.4,12.128 -7.57,10.829 -8.741,9.53 -9.326,7.742 -9.326,5.465 V 10e-4 c 0,-2.285 0.585,-4.071 1.756,-5.357 1.17,-1.285 2.736,-1.928 4.694,-1.928 1.96,0 3.529,0.643 4.708,1.928 C 3.011,-4.07 3.6,-2.284 3.6,0.001 v 5.464 c 0,2.277 -0.594,4.065 -1.781,5.364 -1.187,1.299 -2.756,1.948 -4.707,1.948"
             style="fill:#ffffff;fill-opacity:1;fill-rule:nonzero;stroke:none"
             id="path78"
             inkscape:connector-curvature="0" /></g><g
           id="g80"
           transform="translate(113.4212,262.1651)"><path
             d="M 0,0 -0.076,-0.027 -5.738,12.428 H -9.364 V -7.071 h 3.626 V 5.37 L -5.661,5.397 0,-7.071 H 3.6 V 12.428 H 0 Z"
             style="fill:#ffffff;fill-opacity:1;fill-rule:nonzero;stroke:none"
             id="path82"
             inkscape:connector-curvature="0" /></g><g
           id="g84"
           transform="translate(149.0312,120.647)"><path
             d="m 0,0 c -0.014,-18.143 -0.028,-41.64 -0.028,-41.853 0,-30.05 -24.452,-54.501 -54.537,-54.507 -0.104,0 -0.207,0.007 -0.31,0.008 v 0.001 c -0.004,0 -0.007,0 -0.013,0 0,0 -0.003,0 -0.007,0 v -0.001 c -0.104,-10e-4 -0.207,-0.008 -0.311,-0.008 -30.084,0.006 -54.536,24.457 -54.536,54.507 0,0.216 -0.014,23.726 -0.029,41.853 h -10.04 c 0.014,-18.111 0.028,-41.608 0.028,-41.859 0,-35.588 28.959,-64.541 64.555,-64.541 0.115,0 0.228,0.007 0.343,0.008 0.115,-0.001 0.228,-0.008 0.343,-0.008 35.596,0 64.555,28.953 64.555,64.541 0,0.247 0.014,23.731 0.028,41.859 z"
             style="fill:#ffffff;fill-opacity:1;fill-rule:nonzero;stroke:none"
             id="path86"
             inkscape:connector-curvature="0" /></g><g
           id="g88"
           transform="translate(128.8932,120.647)"><path
             d="m 0,0 c -0.015,-18.241 -0.029,-41.757 -0.029,-41.823 0,-18.958 -15.422,-34.383 -34.377,-34.388 -0.112,0 -0.22,0.014 -0.331,0.017 v 0.001 c -0.004,0 -0.007,-0.001 -0.013,-0.001 0,0 -0.003,0.001 -0.007,0.001 v -0.001 c -0.111,-0.003 -0.219,-0.017 -0.331,-0.017 -18.955,0.005 -34.378,15.43 -34.378,34.388 0,0.067 -0.013,23.593 -0.029,41.823 h -10.11 l 0.021,-31.244 c 0.006,-6.27 0.009,-10.506 0.009,-10.581 0,-24.536 19.967,-44.496 44.509,-44.496 0.107,0 0.212,0.008 0.319,0.009 0.107,-0.001 0.212,-0.009 0.319,-0.009 24.542,0 44.509,19.96 44.509,44.496 0,0.075 0.003,4.311 0.009,10.581 L 10.11,0 Z"
             style="fill:#ffffff;fill-opacity:1;fill-rule:nonzero;stroke:none"
             id="path90"
             inkscape:connector-curvature="0" /></g><g
           id="g92"
           transform="translate(108.632,120.647)"><path
             d="m 0,0 c -0.014,-18.548 -0.029,-41.429 -0.029,-41.499 0,-7.953 -6.442,-14.433 -14.382,-14.492 v 0.002 h -0.075 -0.075 v -0.002 c -7.94,0.059 -14.382,6.539 -14.382,14.492 0,0.071 -0.014,22.946 -0.029,41.499 h -10.134 c 0.015,-18.553 0.03,-41.428 0.03,-41.499 0,-13.563 11.023,-24.599 24.581,-24.623 v -0.001 c 0.003,0 0.009,0.001 0.009,0.001 0.003,0 0.006,-0.001 0.01,-0.001 v 0.001 c 13.557,0.024 24.58,11.06 24.58,24.623 0,0.07 0.015,22.952 0.029,41.499 z"
             style="fill:#ffffff;fill-opacity:1;fill-rule:nonzero;stroke:none"
             id="path94"
             inkscape:connector-curvature="0" /></g><path
           d="m 29.477,140.627 h 129.611 v -9.99 H 29.477 Z"
           style="fill:#ffffff;fill-opacity:1;fill-rule:nonzero;stroke:none"
           id="path96"
           inkscape:connector-curvature="0" /><path
           d="m 29.477,160.61 h 129.611 v -9.99 H 29.477 Z"
           style="fill:#ffffff;fill-opacity:1;fill-rule:nonzero;stroke:none"
           id="path98"
           inkscape:connector-curvature="0" /><g
           id="g100"
           transform="translate(136.7948,188.7326)"><path
             d="m 0,0 c 0,0 4.175,-1.587 5.175,-2.992 0.65,-0.916 4.435,-1.989 4.435,-1.989 0,0 1.155,-0.082 2.659,-1.461 1.15,-1.053 1.518,-1.485 2.239,-1.69 h -38.347 c 0.119,0.624 0.156,1.664 -0.774,2.194 -0.61,0.341 -1.139,1.013 -1.826,1.343 -2.646,1.262 -2.935,0.799 -4.041,1.684 -0.622,0.458 -1.036,2.489 -1.036,2.489 0,0 4.838,4.768 5.764,5.973 1.163,1.506 1.619,2.107 2.141,2.849 3.639,0.342 7.457,0.998 8.77,1.746 0.373,0.224 0.711,0.422 1.033,0.611 0.413,-0.235 0.78,-0.448 1.098,-0.642 1.941,-1.15 6.828,-3.21 8.552,-4.579 C -2.431,4.147 0,0 0,0 m -102.622,3.887 c 1.316,0.545 4.219,-0.57 7.118,-0.04 4.431,0.804 10.753,3.017 12.882,3.974 1.935,0.844 5.39,4.162 6.46,5.042 1.051,0.89 2.158,1.145 2.158,1.145 0,0 1.284,-1.379 3.865,-3.664 2.59,-2.294 3.464,-3.358 4.366,-4.101 0.882,-0.748 1.964,-2.264 2.143,-2.87 0.711,-2.284 0.459,-6.08 0.459,-6.08 0,0 4.033,-1.43 5.325,-2.58 0.912,-0.81 1.676,-2.134 2.048,-2.845 h -41.284 c 0.104,0.686 0.15,2.208 -1.337,2.733 -1.086,0.458 -0.865,0.855 -3.158,1.649 -0.923,0.331 -1.44,0.712 -1.914,1.913 -0.457,1.206 -0.464,3.206 -0.464,3.206 0,0 0.206,2.06 1.333,2.518 m 60.463,8.65 c 0.907,-0.417 3.171,-1.394 5.626,-2.325 0.244,-0.641 0.423,-1.567 0.347,-2.855 -0.224,-3.22 -3.415,-7.22 -3.415,-7.22 0,0 1.614,-3.989 2.077,-4.569 0.454,-0.57 1.931,-1.76 2.429,-2.722 0.142,-0.284 0.321,-0.67 0.462,-0.978 h -8.77 c 0.144,1.198 -0.641,1.697 -0.852,1.904 -0.48,0.473 -0.896,1.409 -2.068,1.822 -4.096,1.46 -4.031,0.87 -5.213,1.816 -0.806,0.641 -2.838,1.99 -3.298,2.819 -0.458,0.829 -1.289,4.595 -1.304,7.81 0.008,1.944 -0.135,3.791 -0.269,4.946 3.776,0.651 9.728,1.588 14.248,-0.448 M 25.346,45.57 c 0,0 -0.208,0.377 -0.626,0.835 -0.415,0.468 -1.46,1.099 -1.964,1.592 -0.498,0.514 -1.098,1.313 -1.39,1.517 -0.284,0.213 -0.882,1.16 -1.158,1.378 -0.309,0.209 -0.644,1.756 -0.683,1.929 -0.032,0.163 -0.155,0.636 -0.618,0.88 -0.26,0.112 -0.976,0.585 -1.443,0.957 -0.451,0.381 -1.614,1.511 -1.614,1.511 0,0 -0.306,1.883 -0.756,2.88 -0.455,1.013 -0.638,1.389 -0.853,1.765 -0.2,0.382 -0.333,0.458 -0.444,1.049 0,0 -0.635,0.045 -1.222,-0.331 0,0 -1.209,0.921 -2.416,1.628 -1.219,0.718 -2.651,1.465 -3.24,1.582 -0.572,0.133 -1.357,0.586 -1.659,0.881 0,0 -0.857,0.04 -1.553,-0.076 C 3.205,65.48 1.55,65.312 0.672,65.18 c -0.875,-0.117 -3.034,-0.479 -3.529,-0.514 -1.041,-0.071 -1.257,-0.153 -2.825,-0.448 0,0 -1.24,-0.218 -1.663,-0.381 -0.423,-0.168 -1.762,-0.687 -2.691,-0.804 -1.017,-0.122 -2.081,-0.127 -3.305,-0.326 -0.552,-0.097 -2.627,-0.926 -3.606,-1.155 -0.439,-0.107 -1.032,-0.178 -1.032,-0.178 0,0 0.198,-0.692 0.739,-0.819 0,0 -0.289,-0.621 -0.959,-0.952 -0.672,-0.346 -1.374,-0.631 -2.293,-0.971 -0.931,-0.321 -2.39,-0.906 -2.767,-1.206 0,0 0.291,-0.58 0.864,-0.891 0,0 0.139,-0.081 -0.65,-0.483 -0.805,-0.427 -2.617,-1.181 -3.439,-1.557 -0.85,-0.382 -1.996,-1.059 -2.561,-1.338 -0.797,-0.418 -0.877,-0.438 -1.642,-0.911 -0.748,-0.458 -0.365,-0.432 -0.365,-0.432 0,0 0.374,-0.082 0.906,-0.123 0.548,-0.04 0.842,-0.254 0.842,-0.254 0,0 0.058,-0.29 -0.326,-0.631 -0.374,-0.331 -0.923,-1.079 -2.214,-1.964 -0.643,-0.438 -1.201,-0.936 -1.907,-1.43 -0.711,-0.493 -1.429,-1.338 -1.684,-1.511 l 0.76,-0.667 -0.114,-0.524 c -0.329,-0.203 -0.739,-0.432 -1.26,-0.636 -0.589,-0.259 -5.618,-0.936 -11.435,-0.865 -9.712,0.132 -12.387,1.384 -17.333,1.608 -4.956,0.234 -8.631,-0.865 -13.154,-2.244 -0.888,-0.269 -1.586,-0.539 -2.114,-0.809 -1.902,-0.397 -3.821,-0.926 -5.578,-1.603 -6.293,-2.412 -17.276,-11.504 -20.35,-12.797 -3.032,-1.282 -4.74,-1.343 -6.894,-1.073 -2.15,0.264 -2.996,0.809 -2.996,0.809 0,0 -1.101,2.33 -2.362,3.282 -1.646,1.211 -5.698,2.646 -5.698,2.646 0,0 -0.708,-2.661 0.731,-5.226 1.728,-3.063 5.106,-2.87 6.325,-3.368 2.156,-0.865 7.294,-1.908 11.626,-0.168 3.89,1.562 7.833,4.152 10.642,5.729 2.796,1.567 7.28,2.931 11.057,3.353 -0.174,-0.656 -0.365,-1.297 -0.569,-1.867 -1.057,-3.216 -4.96,-10.029 -5.756,-11.164 -0.92,-1.333 -4.569,-5.755 -5.215,-6.294 -0.63,-0.549 -2.175,-1.16 -4.114,-1.516 -2.133,-0.397 -8.252,-1.013 -8.252,-1.013 0,0 -1.081,-5.47 -2.435,-8.807 -0.553,-1.359 -1.862,-4.061 -1.862,-4.061 0,0 2.297,-2.137 3.025,-4.818 0.359,-0.689 0.961,-1.817 1.432,-2.168 v -9.496 h 0.01 v -0.273 H 22.293 v 9.99 h -0.004 c 0.242,0.758 0.592,2.477 -0.903,3.193 -1.935,0.921 -0.378,1.654 -4.87,3.359 -1.284,0.488 -3.427,1.175 -4.154,1.775 -0.724,0.586 -4.61,6.02 -6.541,8.309 -1.943,2.305 -5.906,7.566 -5.906,7.566 l -0.874,2.077 0.159,1.572 c 0.243,0.254 0.508,0.508 0.739,0.804 0.704,0.753 1.773,1.872 2.078,2.498 0.736,1.491 0.475,0.036 0.93,0.844 0.343,0.616 1.672,1.354 2.228,1.705 0.546,0.331 1.358,1.338 1.358,1.338 0,0 0.02,-0.6 0.247,-1.18 0,0 0.387,0.321 1.005,1.074 0.618,0.753 0.406,0.824 1.163,1.587 0.755,0.748 1.292,2.244 1.772,3.216 0.487,0.956 0.772,1.236 0.899,1.445 0,0 0.321,-0.768 0.532,-1.308 0,0 0.496,0.478 0.702,0.957 0.205,0.478 0.347,1.099 0.688,1.643 0.341,0.555 0.602,1.267 0.931,1.41 0.349,0.142 1,0.544 1.699,0.58 0.509,0.025 1.208,-0.265 1.842,-0.397 0.601,-0.147 0.886,0.132 1.299,-0.412 0.408,-0.55 0.965,-0.835 0.965,-0.835 0,0 0.008,0.087 0.508,0.336 0.508,0.259 0.538,0.25 1.008,0.585 0.465,0.341 0.39,0.509 0.744,0.845 0.386,0.33 0.602,0.707 0.756,1.343 0.175,0.616 -0.111,0.987 0.191,1.282 0.297,0.285 0.899,0.301 1.204,1.028 0.288,0.702 0.202,0.829 0.329,0.952 0.121,0.127 0.199,0.631 0.199,0.631 0,0 0.85,0.707 0.972,1.292 0.117,0.585 0.244,0.799 0.507,1.053 0,0 -0.22,0.845 -1.349,1.542"
             style="fill:#ffffff;fill-opacity:1;fill-rule:nonzero;stroke:none"
             id="path102"
             inkscape:connector-curvature="0" /></g></g></g></g></svg>