<svg xmlns="http://www.w3.org/2000/svg" viewBox="0 0 175.08 257.46"><defs><style>.cls-1{fill:#fff;}</style></defs><g id="Calque_2" data-name="Calque 2"><g id="Calque_1-2" data-name="Calque 1"><path class="cls-1" d="M69.32,110.12c-.25,3.33-3.06,49.23,23.17,78.28a113.09,113.09,0,0,0,42.14,28.3c1.89.72,3.47,1.26,4.55,1.62A78.61,78.61,0,0,1,133.59,229a87.46,87.46,0,0,1-6.76,9.22c-4.38,5.09-12,13.94-24.67,17.61-13.62,3.94-25.32-.29-29.66-1.86a57.56,57.56,0,0,1-18.19-10.92c-6.35-5.45-7.1-7.79-17.21-18.44-3.11-3.28-6.48-6.31-9.76-9.43-5.88-5.57-9.52-12.55-11.9-20.11-1.19-3.78-3.33-10.84-6.94-25.21C5.3,157.17,4.42,152.76,4,150.69c-1-5.23-1.6-9.29-2.78-17.43A94.42,94.42,0,0,1,.09,123a71.15,71.15,0,0,1,.38-11.88c1.43-10.79,6.76-18.87,9-22.24a59.69,59.69,0,0,1,19.6-18.19A63.14,63.14,0,0,0,24,76.21,53.91,53.91,0,0,0,16.8,87.08c-1.67,3.41-3.33,6.79-3.87,11.46-.25,2.13-1.39,12,2.54,14,5.3,2.63,15.3-11.28,24.38-9a14.09,14.09,0,0,1,3.37,1.34c3.43,2.08,3.65,4.81,7,7.59l.16.13A16.36,16.36,0,0,0,54.64,115C56.57,115.72,62.85,114.86,69.32,110.12Zm-7.57,57.37a26.26,26.26,0,0,0-3.57-3.41c-9.28-7.32-21.19-6.28-26.61-4.39a14.58,14.58,0,0,0-5.4,3.11,13.81,13.81,0,0,0-3,4,22.53,22.53,0,0,0,4.3,4.59,25.11,25.11,0,0,0,17.18,5.2A25.39,25.39,0,0,0,61.75,167.49Z"/><path class="cls-1" d="M95.75,102.79c-3.39-14.44-5.49-34.53.65-56.29,2.27-8,4.92-17,12.42-26C122,4.86,140.4,1.07,147.43,0a37.26,37.26,0,0,0-7.31,16.44,52.31,52.31,0,0,1,21.14-4.27,38.09,38.09,0,0,0-7.35,16.44,52.17,52.17,0,0,1,21.17-4.27A92,92,0,0,1,170,33.17a95.33,95.33,0,0,1-16.45,18.94c-11.63,10.37-18.93,12.27-28.81,19C116.41,76.67,105.59,86.13,95.75,102.79Z"/><path class="cls-1" d="M18.17,106.8a49.59,49.59,0,0,1,2.94-17.25,50.19,50.19,0,0,1,4.53-9.24A59.45,59.45,0,0,1,37.82,66.89c9-7.09,27.73-12.24,50.15-9.17A74,74,0,0,0,72.85,83.31a86.16,86.16,0,0,0-34.77,9.32A84.78,84.78,0,0,0,18.17,106.8Z"/><path class="cls-1" d="M99.78,160.72a26.24,26.24,0,0,1,3.4-6.49,27.77,27.77,0,0,1,13-9.79c3.12-1.12,10.23-3.69,16.5-.33a14,14,0,0,1,2.72,1.91,24.36,24.36,0,0,1-35.67,14.7Z"/><path class="cls-1" d="M136.11,132a41.22,41.22,0,0,0-18.74-.8,36.28,36.28,0,0,0-7.12,1.73,32.85,32.85,0,0,0-5.22,2.61c-6.62,4-8,7.68-11.44,7.34a6.5,6.5,0,0,1-3.49-1.6,37.64,37.64,0,0,1,12.81-10.7,33.14,33.14,0,0,1,15-4A32.62,32.62,0,0,1,136.11,132Z"/></g></g></svg>