<?xml version="1.0" encoding="utf-8"?>
<!-- Generator: Adobe Illustrator 16.0.3, SVG Export Plug-In . SVG Version: 6.00 Build 0)  -->
<!DOCTYPE svg PUBLIC "-//W3C//DTD SVG 1.1//EN" "http://www.w3.org/Graphics/SVG/1.1/DTD/svg11.dtd">
<svg version="1.1" id="Calque_1" xmlns="http://www.w3.org/2000/svg" xmlns:xlink="http://www.w3.org/1999/xlink" x="0px" y="0px"
	 width="283.46px" height="75.66px" viewBox="0 0 283.46 75.66" enable-background="new 0 0 283.46 75.66" xml:space="preserve">
<g>
	<g>
		<path fill="#FFFFFF" d="M28.728,34.297v10.825l8.056,5.53l0.119,0.081l8.423-5.609V34.297H28.728z M42.494,41.294
			c-0.574-0.111-0.928-0.29-0.928,0.084c0,0.377,0.11,1.016-0.376,0.355c-0.483-0.662-1.055-0.729-1.365-0.771
			c0,0,0.017-0.063,0.049-0.152c-0.288,0.825-0.791,1.543-0.791,1.543c-0.065-0.235-0.495-0.299-0.495-0.299
			c-0.135,0.27-0.563,0.466-0.892,0.494c-0.33,0.034-0.133,0.27-0.133,0.27c0.167,0.165,1.588,1.021,1.025,1.982
			c-0.563,0.959,0.199,1.091,0.199,1.091c1.323-0.132,1.027,0.831,1.027,0.831h-1.955c-0.43-0.498-0.696-0.563-0.563-1.258
			c0.133-0.696-0.43-1.029-0.43-1.029l-0.926,0.764c0,0,0.131-0.217-0.86-0.064c-0.662,0.097-0.301,0.558-0.301,0.558
			s0.233,0.468,0.829,0.468c1.127,0,0.861,0.992,0.861,0.992h-1.457c0,0-0.693-0.529-1.091-0.992
			c-0.399-0.468-0.662-0.533-0.298-1.225c0.362-0.697-0.3-1.854-0.3-1.854c0.366-0.532,0.165-0.863,0.165-0.863
			c-0.264-0.526-0.295-0.892,0-1.521c1.552-3.271-0.198-4.167-0.198-4.167c-0.163-0.136-0.66-0.499-0.362,0.79
			c0.347,1.514-0.596,2.317-0.796,2.853c-0.195,0.524-0.567,0.779-0.23-0.269c0.299-0.928-0.135-1.721-0.33-2.118
			c-0.197-0.397-0.893-1.653,1.059-1.853c1.954-0.199,2.184,3.043,1.788,4.633c-0.397,1.591-0.099,1.224-0.099,1.224
			s0.232-0.166,0.895-0.463c0.66-0.295,0.351-1.423,0.351-1.423s0.163-0.187,0.199-0.22c-0.353-0.199-0.549-0.354-0.549-0.354
			l0.372-0.596l-0.552-0.306l0.376-0.509c-0.044-0.156-0.263-0.464-0.263-0.464c0.241-0.308,0.218-0.269,0.461-0.63
			c-0.23-1.422,0.013-1.327,0.013-1.327c0.399,0.109,0.543,0.281,0.618,0.267c0.009,0,0.186,0.068,0.195,0.066
			c0.257-0.061,0.681-0.258,0.756-0.262c0.389-0.047,0.436,0.068,0.643,0.195c0.21,0.129,0.673,0.156,0.941,0.17
			c0.266,0.02,0.126,0.304,0.126,0.304c0.288,0.366,0.168,0.763-0.042,0.761c-0.206-0.007-0.534-0.281-0.708-0.237
			c-0.129,0.036,0.055,0.392,0.055,0.392s0.011,0.063,0.161,0.08l0.45-0.031h0.004c0.021-0.002,0.036-0.006,0.048-0.011
			c0.007,0,0.011,0.005,0.021,0.005h0.017l0.062-0.008c0,0,0.109,0.426-0.051,0.576c-0.011,0.101-0.011,0.2,0.009,0.282
			c0.025,0.095-0.152-0.272-0.402-0.226c-0.182,0.042-0.032,0.061-0.601,0.163c-0.361,0.067,0.626,0.198,1.427,0.597
			c0,0,1.045-0.267,1.09-1.306c0.044-1.035,0.31-0.505,0.399-0.067c0.086,0.444,0.594,0.136,0.594,0.136s1.116-0.454,0.685,0.022
			c-0.418,0.463-0.928,0.596-0.661,0.859c0.262,0.264,0.816,0.683,0.309,0.619c-0.507-0.067-1.015-0.223-1.436,0.021l-0.419,0.241
			c0,0-0.071-0.188-0.328-0.379c0.536,0.41,0.558,1.084,0.392,1.737c0.053-0.192,0.1-0.383,0.091-0.452c0,0,0.751,0.176,1.456-0.133
			c0.707-0.307,0.882-0.244,0.487,0.178c-0.396,0.416-0.131,0.545,0.178,0.68C42.627,40.941,43.063,41.402,42.494,41.294z"/>
		<path fill="#FFFFFF" d="M28.728,27.384v6.485h16.598v-6.485H28.728z M32.637,32.875c-0.073,0.137-0.184,0.408-0.437-0.007
			c-0.008-0.017-0.015-0.031-0.023-0.042h0.487C32.655,32.842,32.648,32.858,32.637,32.875z M32.721,32.706h-0.611
			c-0.024-0.053-0.049-0.104-0.064-0.156h0.738C32.763,32.602,32.744,32.653,32.721,32.706z M32.817,32.435h-0.809
			c-0.018-0.051-0.031-0.104-0.044-0.155h0.888C32.843,32.331,32.83,32.384,32.817,32.435z M32.868,32.165H31.95
			c-0.008-0.053-0.011-0.105-0.011-0.16h0.939C32.879,32.059,32.876,32.112,32.868,32.165z M32.781,31.433
			c0.015,0.044,0.033,0.097,0.049,0.165h-0.842c0.024-0.094,0.053-0.167,0.072-0.219l-0.015,0.054H32.781z M32.854,31.714
			c0.012,0.054,0.018,0.116,0.022,0.177h-0.937c0.004-0.061,0.013-0.123,0.022-0.177H32.854z M33.767,32.406
			c-0.671-0.519-0.853-0.868-1.023-1.063l-0.004-0.006h-0.654c0.007-0.01,0.009-0.016,0.009-0.016
			c-0.002,0.004-0.009,0.011-0.015,0.016c-0.171,0.198-0.353,0.543-1.015,1.052c-0.678,0.522-0.429-0.021-0.429-0.021
			s0.664-0.935,0.818-1.674c0.154-0.736,0.503-0.953,0.503-0.953s-0.002-0.022-0.004-0.063c-0.044-0.078-0.074-0.166-0.074-0.262
			c0-0.172,0.084-0.323,0.207-0.423c0-0.009-0.004-0.083-0.153-0.165c0,0-0.138-0.185-0.03-0.136
			c0.102,0.044,0.237,0.152,0.275,0.241c0.074-0.04,0.161-0.066,0.256-0.066c0.088,0,0.179,0.028,0.257,0.066
			c0.038-0.086,0.175-0.197,0.277-0.241c0.108-0.049-0.025,0.136-0.025,0.136c-0.157,0.085-0.157,0.165-0.157,0.165l-0.019-0.009
			c0.129,0.102,0.213,0.256,0.213,0.432c0,0.118-0.038,0.229-0.102,0.319c-0.002,0.017-0.002,0.026-0.002,0.026
			s0.345,0.213,0.503,0.953c0.153,0.737,0.817,1.673,0.817,1.673S34.45,32.928,33.767,32.406z M37.206,32.875
			c-0.072,0.137-0.182,0.408-0.436-0.007c-0.011-0.017-0.016-0.031-0.027-0.042h0.49C37.225,32.842,37.217,32.858,37.206,32.875z
			 M37.291,32.706h-0.611c-0.025-0.053-0.046-0.104-0.065-0.156h0.736C37.333,32.602,37.313,32.653,37.291,32.706z M37.386,32.435
			h-0.811c-0.018-0.051-0.029-0.104-0.04-0.155h0.886C37.415,32.331,37.398,32.384,37.386,32.435z M37.437,32.165h-0.919
			c-0.004-0.053-0.009-0.105-0.011-0.16h0.941C37.445,32.059,37.443,32.112,37.437,32.165z M37.348,31.433
			c0.021,0.044,0.034,0.097,0.051,0.165h-0.844c0.027-0.094,0.055-0.167,0.076-0.219l-0.016,0.054H37.348z M37.423,31.714
			c0.009,0.054,0.018,0.116,0.022,0.177h-0.937c0.004-0.061,0.011-0.123,0.022-0.177H37.423z M38.339,32.406
			c-0.674-0.519-0.854-0.868-1.026-1.063l-0.005-0.006h-0.655c-0.175,0.198-0.359,0.543-1.017,1.052
			c-0.681,0.522-0.427-0.021-0.427-0.021s0.66-0.935,0.813-1.674c0.157-0.736,0.509-0.953,0.509-0.953s-0.007-0.022-0.012-0.063
			c-0.042-0.078-0.07-0.166-0.07-0.262c0-0.172,0.084-0.323,0.206-0.423c0-0.009-0.002-0.083-0.152-0.165
			c0,0-0.14-0.185-0.032-0.136c0.105,0.044,0.237,0.152,0.277,0.241c0.073-0.04,0.162-0.066,0.253-0.066
			c0.095,0,0.182,0.028,0.259,0.066c0.036-0.086,0.177-0.197,0.277-0.241c0.109-0.049-0.028,0.136-0.028,0.136
			c-0.153,0.085-0.153,0.165-0.153,0.165l-0.018-0.009c0.129,0.102,0.213,0.256,0.213,0.432c0,0.118-0.038,0.229-0.103,0.319
			c-0.002,0.017-0.004,0.026-0.004,0.026s0.349,0.213,0.505,0.953c0.156,0.737,0.818,1.673,0.818,1.673S39.016,32.928,38.339,32.406
			z M41.86,32.875c-0.074,0.137-0.186,0.408-0.439-0.007c-0.011-0.017-0.017-0.031-0.024-0.042h0.487
			C41.877,32.842,41.869,32.858,41.86,32.875z M41.942,32.706h-0.61c-0.026-0.053-0.048-0.104-0.068-0.156h0.74
			C41.985,32.602,41.962,32.653,41.942,32.706z M42.038,32.435h-0.809c-0.018-0.051-0.031-0.104-0.044-0.155h0.89
			C42.063,32.331,42.053,32.384,42.038,32.435z M42.088,32.165h-0.919c-0.004-0.053-0.011-0.105-0.011-0.16h0.939
			C42.097,32.059,42.095,32.112,42.088,32.165z M41.264,31.433l0.02-0.054C41.278,31.392,41.271,31.418,41.264,31.433H42
			c0.017,0.044,0.036,0.097,0.051,0.165h-0.844C41.227,31.527,41.246,31.48,41.264,31.433L41.264,31.433z M42.074,31.714
			c0.01,0.054,0.019,0.116,0.021,0.177h-0.933c0.002-0.061,0.008-0.123,0.02-0.177H42.074z M42.987,32.406
			c-0.67-0.519-0.85-0.868-1.025-1.063l-0.002-0.006h-0.654c0.007-0.01,0.011-0.016,0.011-0.016
			c-0.004,0.004-0.011,0.011-0.015,0.016c-0.171,0.198-0.359,0.543-1.017,1.052c-0.681,0.522-0.426-0.021-0.426-0.021
			s0.661-0.935,0.815-1.674c0.156-0.736,0.505-0.953,0.505-0.953s-0.006-0.022-0.006-0.063C41.131,29.6,41.1,29.512,41.1,29.417
			c0-0.172,0.083-0.323,0.207-0.423c0-0.009-0.004-0.083-0.156-0.165c0,0-0.132-0.185-0.028-0.136
			c0.102,0.044,0.237,0.152,0.274,0.241c0.075-0.04,0.162-0.066,0.254-0.066c0.093,0,0.184,0.028,0.262,0.066
			c0.034-0.086,0.173-0.197,0.277-0.241c0.108-0.049-0.029,0.136-0.029,0.136c-0.157,0.085-0.157,0.165-0.157,0.165l-0.013-0.009
			c0.125,0.102,0.208,0.256,0.208,0.432c0,0.118-0.038,0.229-0.102,0.319c0,0.017-0.002,0.026-0.002,0.026s0.35,0.213,0.505,0.953
			c0.155,0.737,0.818,1.673,0.818,1.673S43.67,32.928,42.987,32.406z"/>
	</g>
	<path fill="#FFFFFF" d="M65.423,19.657h7.635v1.432h-5.95v3.795h5.664v1.414h-5.664v4.045h6.084v1.483h-7.77V19.657z M71.44,16.15
		L69.4,18.579h-1.095l1.382-2.429H71.44z"/>
	<path fill="#FFFFFF" d="M83.261,22.944c-0.065-0.421-0.287-2.107-2.63-2.107c-2.933,0-3.456,3-3.456,5.023
		c0,2.293,0.659,4.77,3.441,4.77c0.74,0,1.448-0.184,1.97-0.724c0.438-0.472,0.54-0.997,0.591-1.283h1.855
		c-0.253,2.396-2.462,3.39-4.552,3.39c-4.282,0-5.107-3.775-5.107-6.138c0-2.559,0.996-6.388,5.327-6.388
		c1.72,0,4.145,0.691,4.364,3.457H83.261z"/>
	<path fill="#FFFFFF" d="M88.258,20.969c1.263-1.364,2.932-1.635,4.062-1.635c3.372,0,5.495,2.158,5.495,6.288
		c0,3.237-1.299,6.489-5.63,6.489c-4.146,0-5.495-2.946-5.495-6.287C86.69,24.444,86.925,22.403,88.258,20.969 M89.539,29.569
		c0.691,0.859,1.737,1.112,2.697,1.112c0.994,0,1.987-0.271,2.696-1.112c0.995-1.215,1.097-3.135,1.097-3.961
		c0-2.766-0.911-4.855-3.691-4.855c-3.084,0-3.877,2.477-3.877,4.972C88.46,27.056,88.697,28.523,89.539,29.569"/>
	<polygon fill="#FFFFFF" points="100.386,19.657 102.054,19.657 102.054,30.325 107.717,30.325 107.717,31.826 100.386,31.826 	"/>
	<polygon fill="#FFFFFF" points="109.474,19.657 117.112,19.657 117.112,21.088 111.161,21.088 111.161,24.881 116.824,24.881 
		116.824,26.297 111.161,26.297 111.161,30.342 117.245,30.342 117.245,31.826 109.474,31.826 	"/>
	<path fill="#FFFFFF" d="M77.083,42.044c-0.108-0.674-0.459-3.36-4.194-3.36c-4.682,0-5.512,4.786-5.512,8.015
		c0,3.656,1.045,7.607,5.486,7.607c1.183,0,2.311-0.295,3.144-1.156c0.7-0.75,0.861-1.588,0.943-2.042h2.956
		c-0.402,3.819-3.928,5.405-7.261,5.405c-6.831,0-8.147-6.024-8.147-9.791c0-4.086,1.587-10.19,8.498-10.19
		c2.743,0,6.616,1.102,6.966,5.513H77.083z"/>
	<polygon fill="#FFFFFF" points="83.004,36.801 95.186,36.801 95.186,39.085 85.692,39.085 85.692,45.136 94.729,45.136 
		94.729,47.397 85.692,47.397 85.692,53.851 95.401,53.851 95.401,56.216 83.004,56.216 	"/>
	<polygon fill="#FFFFFF" points="99.95,36.801 103.689,36.801 113.235,52.853 113.235,36.801 115.707,36.801 115.707,56.216 
		112.264,56.216 102.398,39.732 102.398,56.216 99.95,56.216 	"/>
	<polygon fill="#FFFFFF" points="124.725,56.216 124.725,39.085 118.215,39.085 118.215,36.801 133.896,36.801 133.896,39.085 
		127.388,39.085 127.388,56.216 	"/>
	<path fill="#FFFFFF" d="M136.399,36.8h6.937c0.996,0,3.039,0,4.467,0.912c1.449,0.917,2.15,2.395,2.15,3.955
		c0,1.371-0.512,2.581-1.373,3.442c-0.832,0.833-1.691,1.102-2.287,1.264c1.857,0.485,2.689,1.317,2.959,3.739
		c0.27,2.285,0.459,3.951,1.213,6.104h-2.879c-0.43-1.291-0.697-3.658-0.885-5.137c-0.326-2.824-0.998-3.629-4.25-3.629h-3.391
		v8.766h-2.661V36.8z M139.007,45.164h4.249c0.299,0,1.828,0,2.555-0.43c0.375-0.215,1.318-0.916,1.318-2.529
		c0-3.145-2.797-3.145-3.873-3.145h-4.249V45.164z"/>
	<path fill="#FFFFFF" d="M160.445,36.801h2.875l7.854,19.415h-2.934l-2.094-5.059h-9.01l-2.1,5.059h-2.77L160.445,36.801z
		 M157.998,48.983h7.34l-3.578-9.521L157.998,48.983z"/>
	<polygon fill="#FFFFFF" points="173.947,36.801 176.611,36.801 176.611,53.822 185.645,53.822 185.645,56.216 173.947,56.216 	"/>
	<polygon fill="#FFFFFF" points="188.447,36.801 200.629,36.801 200.629,39.085 191.137,39.085 191.137,45.136 200.172,45.136 
		200.172,47.397 191.137,47.397 191.137,53.851 200.844,53.851 200.844,56.216 188.447,56.216 	"/>
	<polygon fill="#FFFFFF" points="206.859,56.216 206.859,36.801 208.609,36.801 208.609,54.605 218.371,54.605 218.371,56.216 	"/>
	<polygon fill="#FFFFFF" points="222.73,47.828 215.58,36.8 217.811,36.8 223.752,46.185 229.697,36.8 231.578,36.8 224.479,47.771 
		224.479,56.216 222.73,56.216 	"/>
	<path fill="#FFFFFF" d="M240.242,56.619c-5.564,0-8.66-4.061-8.66-10.111c0-6.049,3.096-10.11,8.66-10.11
		c5.566,0,8.66,4.062,8.66,10.11C248.902,52.558,245.809,56.619,240.242,56.619 M240.242,55.005c4.84,0,6.777-4.248,6.777-8.498
		c0-4.249-1.938-8.497-6.777-8.497s-6.775,4.248-6.775,8.497C233.467,50.757,235.402,55.005,240.242,55.005"/>
	<polygon fill="#FFFFFF" points="253.184,36.801 255.172,36.801 265.875,53.876 265.93,53.876 265.93,36.801 267.678,36.801 
		267.678,56.216 265.473,56.216 254.982,39.435 254.932,39.435 254.932,56.216 253.184,56.216 	"/>
</g>
<g>
	<path fill="#FFFFFF" d="M58.042,41.191c0.361-1.993,0.43-3.907,0-6.013l-2.313,0.408c-0.211-1.551-0.613-3.042-1.181-4.449
		l2.179-0.866c-0.681-1.905-1.576-3.599-3.005-5.206L51.89,26.53c-0.949-1.213-2.001-2.268-3.213-3.219l1.45-1.841
		c-1.541-1.31-3.16-2.321-5.203-3.005l-0.803,2.201c-1.4-0.566-2.899-0.977-4.444-1.196l0.338-2.319
		c-1.989-0.361-3.903-0.43-6.013,0c0.029,0.182,0.41,2.313,0.41,2.313c-1.55,0.213-3.04,0.611-4.448,1.178l-0.867-2.176
		c-1.903,0.677-3.594,1.576-5.207,3.005l1.509,1.8c-1.214,0.943-2.309,2.037-3.26,3.244l-1.841-1.449
		c-1.307,1.54-2.324,3.162-3.006,5.206l2.203,0.8c-0.569,1.402-0.977,2.892-1.197,4.443l-2.319-0.336
		c-0.363,1.985-0.433,3.898,0,6.013l2.309-0.41c0.212,1.549,0.616,3.039,1.18,4.445l-2.175,0.868
		c0.68,1.904,1.577,3.595,3.006,5.206l1.797-1.51c0.947,1.218,2.036,2.307,3.249,3.26l-1.454,1.842
		c1.541,1.305,3.165,2.326,5.207,3.004l0.799-2.201c1.401,0.57,2.892,0.979,4.445,1.193l-0.339,2.322
		c1.987,0.363,3.904,0.434,6.013,0l-0.409-2.307c1.548-0.217,3.042-0.615,4.448-1.184l0.869,2.176
		c1.901-0.678,3.592-1.574,5.203-3.004l-1.509-1.797c1.216-0.945,2.311-2.037,3.261-3.251l1.843,1.456
		c1.306-1.541,2.325-3.161,3.005-5.206l-2.201-0.8c0.567-1.402,0.973-2.898,1.194-4.443L58.042,41.191z M48.622,48.792
		c-2.877,3.148-7.012,5.119-11.612,5.119c-4.599,0-8.734-1.971-11.612-5.119c-2.56-2.797-4.116-6.523-4.116-10.614
		c0-2.258,0.474-4.397,1.329-6.338l1.422,1.264l-0.795,0.975l5.491,3.483v-2.663l-1.778-1.176l0.796-1.147l-3.624-3.419
		c2.848-4.055,7.556-6.706,12.886-6.706c5.298,0,10.035,2.689,12.884,6.706l-3.622,3.419l0.799,1.147l-1.744,1.153v2.643
		l5.454-3.441l-0.794-0.975l1.423-1.264c0.875,1.955,1.332,4.055,1.332,6.338C52.74,42.269,51.18,45.996,48.622,48.792z"/>
	<polygon fill="#FFFFFF" points="26.669,47.443 27.924,46.267 28.989,46.628 30.216,46.144 28.728,45.123 28.728,44.885 
		27.221,44.332 26.311,47.196 25.531,46.728 25.397,48.792 27.413,47.888 	"/>
	<polygon fill="#FFFFFF" points="47.708,47.196 46.798,44.332 45.326,44.874 45.326,45.125 43.798,46.142 45.028,46.628 
		46.094,46.267 47.35,47.443 46.605,47.888 48.622,48.792 48.489,46.728 	"/>
</g>
</svg>
